<?xml version="1.0" standalone="no"?>
<!DOCTYPE svg PUBLIC "-//W3C//DTD SVG 1.1//EN" "http://www.w3.org/Graphics/SVG/1.1/DTD/svg11.dtd" >
<svg xmlns="http://www.w3.org/2000/svg" xmlns:xlink="http://www.w3.org/1999/xlink" version="1.1">
<metadata></metadata>
<defs>
<font id="akrobatlight" horiz-adv-x="0" >
<font-face units-per-em="2048" ascent="1638" descent="-410" />
<missing-glyph horiz-adv-x="495" />
<glyph unicode=" "  horiz-adv-x="495" />
<glyph unicode="&#x09;" horiz-adv-x="495" />
<glyph unicode="&#xa0;" horiz-adv-x="495" />
<glyph unicode="!" horiz-adv-x="423" d="M135 59q0 35 21.5 56.5t56.5 21.5t56.5 -21.5t21.5 -56.5t-21.5 -56t-56.5 -21t-56.5 21t-21.5 56zM168 272v1162h90v-1162h-90z" />
<glyph unicode="&#x22;" horiz-adv-x="423" d="M39 1038l41 396h108l-84 -396h-65zM227 1038l41 396h109l-84 -396h-66z" />
<glyph unicode="#" horiz-adv-x="1136" d="M35 387l18 76h250l111 485h-250l16 76h250l94 410h84l-94 -410h252l94 410h84l-94 -410h252l-17 -76h-251l-111 -485h252l-19 -76h-251l-89 -387h-84l89 387h-252l-88 -387h-84l88 387h-250zM385 463h252l113 485h-252z" />
<glyph unicode="$" horiz-adv-x="901" d="M76 350h92q9 -134 82.5 -209t198.5 -75q130 0 202 75t72 197q0 72 -35 133.5t-90.5 106.5t-123 87.5t-134.5 87t-122.5 93.5t-90.5 119t-35 153q0 137 86 231t225 107v152h72v-150q144 -10 231.5 -109t96.5 -257h-94q-9 135 -78 205.5t-182 70.5q-120 0 -191.5 -68 t-71.5 -182q0 -70 35 -129t90.5 -103t123 -85.5t134.5 -86.5t122.5 -95t90.5 -122.5t35 -158.5q0 -144 -92 -249t-250 -114v-149h-72v151q-146 15 -232.5 115.5t-94.5 257.5z" />
<glyph unicode="%" horiz-adv-x="1191" d="M49 1010v237q0 93 50.5 148t133.5 55q82 0 132.5 -55t50.5 -148v-237q0 -92 -50.5 -146.5t-132.5 -54.5t-133 54.5t-51 146.5zM66 0l972 1434h88l-972 -1434h-88zM123 1010q0 -62 29 -95.5t81 -33.5t80.5 33.5t28.5 95.5v237q0 64 -28.5 97.5t-80.5 33.5t-81 -33.5 t-29 -97.5v-237zM776 184v238q0 93 51 148t134 55t133.5 -55t50.5 -148v-238q0 -93 -50.5 -146.5t-133.5 -53.5t-134 54t-51 146zM852 184q0 -62 28.5 -95.5t80.5 -33.5q51 0 79.5 33.5t28.5 95.5v238q0 64 -28 97.5t-80 33.5t-80.5 -33.5t-28.5 -97.5v-238z" />
<glyph unicode="&#x26;" horiz-adv-x="1161" d="M166 324q0 71 21 135.5t63 121.5t82 98.5t100 94.5q-164 264 -164 404q0 123 72.5 201.5t204.5 78.5q134 0 207 -84t71 -209q-1 -49 -18 -97t-38.5 -84t-62.5 -81t-70 -72t-81 -73q52 -78 289 -408q57 108 84 219l100 -6q-52 -176 -123 -297q104 -140 189 -266h-113 q-107 152 -129 182q-151 -207 -350 -207q-149 0 -241.5 94.5t-92.5 254.5zM264 332q0 -118 68 -192t174 -74q156 0 287 198q-253 346 -310 432q-105 -93 -162 -177.5t-57 -186.5zM360 1176q0 -107 144 -340q55 47 88 79t69 75.5t53 87.5t17 91q0 88 -50.5 143.5t-135.5 55.5 q-88 0 -136.5 -53.5t-48.5 -138.5z" />
<glyph unicode="'" horiz-adv-x="235" d="M39 1038l41 396h108l-84 -396h-65z" />
<glyph unicode="(" horiz-adv-x="548" d="M166 59v1317q0 131 72.5 215t193.5 88v-86q-82 -5 -129 -62.5t-47 -154.5v-1317q0 -97 47 -156t129 -63v-86q-121 4 -193.5 88t-72.5 217z" />
<glyph unicode=")" horiz-adv-x="548" d="M117 -160q82 4 129 63t47 156v1317q0 97 -47 154.5t-129 62.5v86q121 -4 193.5 -88t72.5 -215v-1317q0 -133 -72.5 -217t-193.5 -88v86z" />
<glyph unicode="*" horiz-adv-x="589" d="M55 1276l21 67l182 -59v191h72v-191l182 59l23 -67l-185 -57l115 -158l-59 -41l-113 156l-111 -156l-59 41l113 158z" />
<glyph unicode="+" horiz-adv-x="882" d="M100 590v84h299v305h84v-305h299v-84h-299v-303h-84v303h-299z" />
<glyph unicode="," horiz-adv-x="280" d="M66 -258l40 395h109l-84 -395h-65z" />
<glyph unicode="-" horiz-adv-x="681" d="M98 483v84h488v-84h-488z" />
<glyph unicode="." horiz-adv-x="358" d="M102 59q0 35 21 56.5t55 21.5q35 0 56.5 -21.5t21.5 -56.5t-21.5 -56t-56.5 -21q-34 0 -55 21t-21 56z" />
<glyph unicode="/" horiz-adv-x="798" d="M25 -231l659 1884h90l-659 -1884h-90z" />
<glyph unicode="0" horiz-adv-x="925" d="M127 334v766q0 158 94 256t242 98t242 -98t94 -256v-766q0 -158 -94 -256t-242 -98t-242 98t-94 256zM217 334q0 -122 67.5 -195t178.5 -73t179.5 73t68.5 195v766q0 122 -68.5 195t-179.5 73t-178.5 -73t-67.5 -195v-766z" />
<glyph unicode="1" horiz-adv-x="555" d="M59 1116v111l246 207h84v-1428h-90v1307z" />
<glyph unicode="2" horiz-adv-x="804" d="M70 0v78q0 93 31 183t80.5 163.5t109.5 144.5t119.5 139t109 133.5t80.5 140t31 148.5q0 105 -65 171t-171 65q-101 0 -163 -69t-66 -193h-90q9 156 96 252t223 96q146 1 237 -90.5t91 -231.5q0 -83 -31 -165t-80.5 -151.5t-109.5 -138.5t-120.5 -137.5t-110 -137.5 t-80.5 -150t-31 -164h573v-86h-663z" />
<glyph unicode="3" horiz-adv-x="811" d="M41 356h90q4 -145 70 -215.5t172 -70.5q118 0 183 74.5t65 222.5v127q0 130 -71 199t-190 69h-112v74l321 514h-487v86h604v-64l-334 -530h15q163 0 253.5 -93t90.5 -255v-127q0 -182 -92 -283.5t-244 -101.5q-147 0 -240.5 98.5t-93.5 275.5z" />
<glyph unicode="4" horiz-adv-x="806" d="M27 401v56l340 977h92l-326 -945h402v529h90v-529h172v-88h-172v-401h-90v401h-508z" />
<glyph unicode="5" horiz-adv-x="829" d="M104 332h91q3 -126 66 -195t167 -69q106 0 165.5 78.5t59.5 240.5v199q0 139 -58.5 212.5t-166.5 73.5q-172 0 -225 -176h-88v738h596v-86h-506v-496q82 106 231 106q139 0 223 -99t84 -271v-201q0 -198 -84.5 -302.5t-230.5 -104.5q-141 0 -230.5 95t-93.5 257z" />
<glyph unicode="6" horiz-adv-x="878" d="M127 322v784q0 156 92 252t234 96q132 0 223 -92.5t98 -241.5h-90q-6 114 -71 181t-160 67q-103 0 -169.5 -70.5t-66.5 -189.5v-281q88 119 244 119q134 0 227.5 -97t93.5 -251v-260q0 -160 -93 -258t-232 -98t-234.5 95t-95.5 245zM217 322q0 -113 69 -182.5t171 -69.5 t168.5 72t66.5 196v260q0 120 -69.5 191t-173.5 71q-99 0 -165.5 -69t-66.5 -181v-288z" />
<glyph unicode="7" horiz-adv-x="729" d="M12 1348v88h641v-56l-391 -1382h-94l383 1350h-539z" />
<glyph unicode="8" horiz-adv-x="919" d="M111 354v54q0 116 52 203.5t144 125.5q-79 40 -125.5 128t-46.5 198v31q0 166 86.5 262t237.5 96q152 0 238.5 -96t86.5 -262v-31q0 -110 -46.5 -198t-125.5 -128q92 -38 144.5 -125.5t52.5 -203.5v-54q0 -172 -94 -272t-256 -100q-161 0 -254.5 100t-93.5 272zM201 354 q0 -132 69.5 -208t188.5 -76q120 0 190 76t70 208v54q0 132 -70 209t-190 77q-119 0 -188.5 -77t-69.5 -209v-54zM225 1063q0 -130 63 -205.5t171 -75.5q109 0 172 75.5t63 205.5v31q0 126 -63 198t-172 72q-108 0 -171 -72.5t-63 -197.5v-31z" />
<glyph unicode="9" horiz-adv-x="878" d="M96 836v260q0 160 93.5 258t232.5 98t234.5 -95t95.5 -245v-784q0 -156 -92 -252t-234 -96q-132 0 -223.5 92t-98.5 241h91q6 -114 71 -180.5t160 -66.5q103 0 169.5 70.5t66.5 189.5v280q-88 -119 -244 -119q-134 0 -228 97.5t-94 251.5zM186 836q0 -120 70 -191.5 t174 -71.5q99 0 165.5 69t66.5 181v289q0 113 -69 182.5t-171 69.5t-169 -72t-67 -196v-260z" />
<glyph unicode=":" horiz-adv-x="368" d="M109 59q0 35 20.5 56.5t54.5 21.5q35 0 56.5 -21.5t21.5 -56.5t-21.5 -56t-56.5 -21q-34 0 -54.5 21t-20.5 56zM109 774q0 35 20.5 56.5t54.5 21.5q35 0 56.5 -21.5t21.5 -56.5t-21.5 -56.5t-56.5 -21.5q-34 0 -54.5 21.5t-20.5 56.5z" />
<glyph unicode=";" horiz-adv-x="296" d="M66 -258l40 395h109l-84 -395h-65zM76 772q0 35 21.5 56.5t56.5 21.5t56 -21.5t21 -56.5t-21 -56.5t-56 -21.5t-56.5 21.5t-21.5 56.5z" />
<glyph unicode="&#x3c;" horiz-adv-x="802" d="M100 584v98l602 285v-90l-509 -244l509 -244v-90z" />
<glyph unicode="=" horiz-adv-x="882" d="M100 451v84h682v-84h-682zM100 717v84h682v-84h-682z" />
<glyph unicode="&#x3e;" horiz-adv-x="802" d="M100 299v90l510 244l-510 244v90l602 -285v-98z" />
<glyph unicode="?" horiz-adv-x="759" d="M35 1100q4 158 95.5 255t229.5 97q141 0 233.5 -94t92.5 -238q0 -70 -16 -131t-42 -106.5t-57 -87t-62.5 -82.5t-57.5 -84.5t-42 -101.5t-16 -124v-131h-92v140q0 96 30.5 175.5t73.5 135.5t86.5 111t74 127.5t30.5 158.5q0 109 -67 177.5t-169 68.5q-103 0 -169 -71 t-66 -195h-90zM272 59q0 35 22 56.5t56 21.5q35 0 56.5 -21.5t21.5 -56.5t-21.5 -56t-56.5 -21q-34 0 -56 21t-22 56z" />
<glyph unicode="@" horiz-adv-x="1513" d="M117 539v268q0 319 172 496.5t483 177.5q298 0 462.5 -167t164.5 -483v-221q0 -164 -68 -252t-184 -88q-144 0 -193 119q-29 -62 -83 -95.5t-126 -33.5q-112 0 -185 79.5t-73 215.5v215q0 136 69 212.5t185 76.5q136 0 201 -103l8 88h70v-548q0 -72 30.5 -108.5 t96.5 -37.5q170 0 170 260v221q0 281 -142 426.5t-403 145.5q-274 0 -423.5 -157t-149.5 -439v-268q0 -286 154.5 -450.5t410.5 -164.5q261 0 403 117l43 -68q-160 -127 -444 -127q-296 0 -472.5 185t-176.5 508zM569 555q0 -101 52 -158t133 -57q79 0 132.5 52.5 t53.5 156.5v235q0 84 -53.5 139.5t-141.5 55.5q-81 0 -128.5 -53t-47.5 -156v-215z" />
<glyph unicode="A" horiz-adv-x="915" d="M27 0l379 1434h104l379 -1434h-98l-95 367h-477l-94 -367h-98zM242 453h432l-150 587q-15 58 -38.5 159t-26.5 114h-2q-5 -20 -17.5 -73.5t-25 -105t-23.5 -94.5z" />
<glyph unicode="B" horiz-adv-x="993" d="M166 0v1434h315q175 0 273 -96.5t98 -270.5q0 -128 -51.5 -212.5t-151.5 -111.5q128 -27 195 -120t67 -234q0 -187 -106.5 -288t-296.5 -101h-342zM258 88h250q309 0 309 301q0 140 -84.5 222.5t-236.5 82.5h-238v-606zM258 782h234q133 0 199.5 76t66.5 209 q0 279 -277 279h-223v-564z" />
<glyph unicode="C" horiz-adv-x="970" d="M127 401v631q0 205 100.5 315.5t270.5 110.5q173 0 273 -103t112 -298h-90q-24 317 -295 317q-130 0 -205.5 -86.5t-75.5 -255.5v-631q0 -168 76.5 -255t208.5 -87q274 0 301 318h90q-13 -195 -114.5 -298.5t-276.5 -103.5q-171 0 -273 110.5t-102 315.5z" />
<glyph unicode="D" horiz-adv-x="1009" d="M166 0v1434h313q193 0 298.5 -106.5t105.5 -303.5v-604q0 -199 -107 -309.5t-297 -110.5h-313zM258 88h221q150 0 231 86.5t81 249.5v596q0 161 -80.5 243.5t-231.5 82.5h-221v-1258z" />
<glyph unicode="E" horiz-adv-x="913" d="M166 0v1434h649v-86h-557v-576h518v-86h-518v-600h571v-86h-663z" />
<glyph unicode="F" horiz-adv-x="856" d="M166 0v1434h631v-86h-539v-598h502v-86h-502v-664h-92z" />
<glyph unicode="G" horiz-adv-x="1003" d="M127 399v629q0 207 102 316.5t273 109.5q168 0 271.5 -103t109.5 -294h-92q-6 156 -83 232.5t-206 76.5q-131 0 -208 -84.5t-77 -253.5v-629q0 -161 80.5 -246t210.5 -85q134 0 215.5 82.5t81.5 236.5v281h-299v84h389v-365q0 -190 -108 -298.5t-279 -108.5 q-169 0 -275 110t-106 309z" />
<glyph unicode="H" horiz-adv-x="1067" d="M166 0v1434h92v-660h551v660h94v-1434h-94v686h-551v-686h-92z" />
<glyph unicode="I" horiz-adv-x="423" d="M166 0v1434h92v-1434h-92z" />
<glyph unicode="J" horiz-adv-x="475" d="M-8 -66q118 0 174.5 66.5t56.5 208.5v1225h92v-1225q0 -180 -81.5 -271.5t-241.5 -91.5v88z" />
<glyph unicode="K" horiz-adv-x="968" d="M166 0v1434h92v-719l90 127l436 592h115l-461 -623l516 -811h-110l-465 731l-121 -160v-571h-92z" />
<glyph unicode="L" horiz-adv-x="808" d="M166 0v1434h92v-1346h528v-88h-620z" />
<glyph unicode="M" horiz-adv-x="1306" d="M166 2v1432h98l291 -705q18 -43 52.5 -138t43.5 -118h4q66 184 97 256l290 705h99v-1432h-94v924q0 113 8 305l-4 2q-38 -98 -113 -281l-238 -594h-94l-239 594q-19 49 -57 144.5t-54 136.5l-4 -2q6 -144 6 -305v-924h-92z" />
<glyph unicode="N" horiz-adv-x="1093" d="M166 0v1434h96l457 -977q55 -115 121 -275l4 2q-10 200 -10 301v949h94v-1434h-97l-460 983q-75 167 -115 268l-4 -2q6 -129 6 -297v-952h-92z" />
<glyph unicode="O" horiz-adv-x="1048" d="M127 424v584q0 214 105.5 332t291.5 118q187 0 293.5 -118t106.5 -332v-584q0 -211 -106.5 -330t-293.5 -119q-185 0 -291 119t-106 330zM221 424q0 -174 78.5 -266t224.5 -92q147 0 226 92t79 266v584q0 176 -79 268t-226 92q-146 0 -224.5 -92t-78.5 -268v-584z" />
<glyph unicode="P" horiz-adv-x="970" d="M166 0v1434h323q193 0 297.5 -113.5t106.5 -319.5q0 -215 -105 -329.5t-299 -114.5h-231v-557h-92zM258 645h231q310 0 310 356v8q1 163 -77 249q-80 88 -233 88h-231v-701z" />
<glyph unicode="Q" horiz-adv-x="1052" d="M127 424v584q0 214 105.5 332t291.5 118q187 0 293.5 -118t106.5 -332v-584q0 -219 -115 -340l117 -137l-60 -53l-118 141q-94 -60 -224 -60q-185 0 -291 119t-106 330zM221 424q0 -174 78.5 -266t224.5 -92q99 0 162 38l-160 189l62 53l162 -190q79 94 79 268v584 q0 176 -79 268t-226 92q-146 0 -224.5 -92t-78.5 -268v-584z" />
<glyph unicode="R" horiz-adv-x="966" d="M166 0v1434h301q197 0 301 -107t104 -307q0 -186 -85 -299t-238 -133l350 -588h-106l-344 584h-191v-584h-92zM258 670h229q139 0 215 89t76 257q0 330 -311 330h-209v-676z" />
<glyph unicode="S" horiz-adv-x="901" d="M76 350h92q9 -136 82.5 -210t198.5 -74q130 0 202 75.5t72 198.5q0 72 -35 133t-90.5 105.5t-123 87t-134.5 86.5t-122.5 93.5t-90.5 120t-35 154.5q0 147 98.5 242.5t253.5 95.5q157 0 253.5 -100t105.5 -266h-94q-9 135 -78 205.5t-182 70.5q-120 0 -191.5 -67.5 t-71.5 -180.5q0 -71 35 -130.5t90.5 -103.5t123 -85.5t134.5 -85.5t122.5 -94.5t90.5 -122.5t35 -158q0 -98 -41.5 -180t-126 -133.5t-198.5 -51.5q-167 0 -267 102.5t-108 272.5z" />
<glyph unicode="T" horiz-adv-x="821" d="M43 1346v88h735v-88h-323v-1346h-93v1346h-319z" />
<glyph unicode="U" horiz-adv-x="1032" d="M141 406v1028h95v-1028q0 -166 75 -251t205 -85t205.5 85t75.5 251v1028h94v-1028q0 -204 -101.5 -314t-273.5 -110t-273.5 110t-101.5 314z" />
<glyph unicode="V" horiz-adv-x="897" d="M27 1434h98l242 -977q11 -45 37.5 -158.5t41.5 -171.5h5q15 55 40.5 167.5t38.5 162.5l242 977h100l-368 -1434h-109z" />
<glyph unicode="W" horiz-adv-x="1413" d="M27 1434h98l199 -971q56 -276 65 -328h4l68 340l194 936h103l192 -924q48 -245 70 -352h4q8 42 34 169.5t34 168.5l196 961h98l-313 -1434h-104l-195 885q-32 134 -65 387h-4q-32 -244 -66 -387l-195 -885h-104z" />
<glyph unicode="X" horiz-adv-x="886" d="M43 0l348 743l-332 691h105l280 -603l281 603h102l-329 -691l348 -743h-103l-299 653l-299 -653h-102z" />
<glyph unicode="Y" horiz-adv-x="845" d="M14 1434h101l229 -592q12 -35 80 -205q38 102 78 207l229 590h100l-362 -908v-526h-92v526z" />
<glyph unicode="Z" horiz-adv-x="821" d="M45 0v72l588 1274h-563v88h675v-64l-591 -1282h600v-88h-709z" />
<glyph unicode="[" horiz-adv-x="548" d="M166 -246v1925h266v-84h-176v-1757h176v-84h-266z" />
<glyph unicode="\" horiz-adv-x="952" d="M100 1653h90l660 -1884h-90z" />
<glyph unicode="]" horiz-adv-x="548" d="M117 -162h176v1757h-176v84h266v-1925h-266v84z" />
<glyph unicode="^" horiz-adv-x="610" d="M35 983l221 451h98l219 -451h-90l-178 369l-178 -369h-92z" />
<glyph unicode="_" horiz-adv-x="839" d="M57 -16h725v-84h-725v84z" />
<glyph unicode="a" horiz-adv-x="903" d="M90 303q0 151 94 233t267 82h221v136q0 123 -58.5 189.5t-167.5 66.5q-102 0 -166 -57t-67 -150h-90q8 131 95.5 211t230.5 80q146 0 228.5 -90t82.5 -248v-756h-78l-8 115q-37 -63 -104 -100.5t-160 -37.5q-144 0 -232 86.5t-88 239.5zM180 301q0 -113 65.5 -175.5 t176.5 -62.5q119 0 184.5 66.5t65.5 181.5v226h-223q-131 0 -200 -61t-69 -175z" />
<glyph unicode="b" horiz-adv-x="927" d="M143 0v1481h86v-545q38 77 108.5 117.5t158.5 40.5q146 0 230.5 -98.5t84.5 -274.5v-365q0 -177 -89.5 -278t-232.5 -101q-82 0 -151 36.5t-111 99.5l-10 -113h-74zM229 344q0 -131 69.5 -208t172.5 -77q117 0 184.5 76t67.5 221v365q0 143 -64.5 217t-183.5 74 q-108 0 -177 -85t-69 -231v-352z" />
<glyph unicode="c" horiz-adv-x="872" d="M117 342v389q0 169 87.5 266t237.5 97q156 0 245.5 -97.5t92.5 -271.5h-90q-3 137 -67.5 210t-180.5 73q-111 0 -174 -72.5t-63 -204.5v-389q0 -132 63.5 -204t175.5 -72q118 0 182.5 72.5t67.5 211.5h90q-3 -174 -93.5 -272t-246.5 -98q-151 0 -239 97t-88 265z" />
<glyph unicode="d" horiz-adv-x="927" d="M117 356v365q0 176 84.5 274.5t230.5 98.5q88 0 158 -40.5t108 -117.5v545h86v-1481h-73l-11 113q-42 -63 -111 -99.5t-151 -36.5q-143 0 -232 100.5t-89 278.5zM205 356q0 -145 67.5 -221t184.5 -76q103 0 172 77t69 208v352q0 146 -69 231t-176 85q-119 0 -183.5 -74 t-64.5 -217v-365z" />
<glyph unicode="e" horiz-adv-x="903" d="M117 342v389q0 169 89.5 266t242.5 97q155 0 246 -97t91 -266v-239h-581v-150q0 -132 64.5 -204t179.5 -72q239 0 264 256h90q-14 -162 -105.5 -252t-251.5 -90q-153 0 -241 97t-88 265zM205 573h493v158q0 133 -65.5 205t-183.5 72q-115 0 -179.5 -72t-64.5 -205v-158z " />
<glyph unicode="f" horiz-adv-x="567" d="M35 989v82h158v109q0 157 78 241t221 84h45v-82h-45q-209 0 -209 -243v-109h233v-82h-233v-989h-90v989h-158z" />
<glyph unicode="g" horiz-adv-x="927" d="M117 389v326q0 178 90.5 278.5t238.5 100.5q82 0 147.5 -37.5t106.5 -108.5l9 123h77v-1141q0 -149 -86 -236t-233 -87q-148 0 -237 81.5t-97 219.5h86q9 -104 72.5 -160.5t175.5 -56.5q108 0 168.5 62t60.5 177v222q-40 -60 -104.5 -93.5t-140.5 -33.5q-149 0 -241.5 98 t-92.5 266zM205 389q0 -133 70 -206.5t188 -73.5q106 0 169.5 72t63.5 198v360q0 125 -66.5 198t-166.5 73q-119 0 -188.5 -75.5t-69.5 -219.5v-326z" />
<glyph unicode="h" horiz-adv-x="927" d="M143 0v1477h88v-564q44 85 118.5 133t170.5 48q135 0 207 -105.5t72 -320.5v-668h-88v662q0 179 -52.5 263.5t-158.5 84.5q-120 0 -194.5 -97.5t-74.5 -261.5v-651h-88z" />
<glyph unicode="i" horiz-adv-x="372" d="M109 1354q0 36 21 58t56 22q36 0 58 -22t22 -58q0 -37 -21.5 -58.5t-58.5 -21.5q-35 0 -56 21.5t-21 58.5zM143 0v1071h88v-1071h-88z" />
<glyph unicode="j" horiz-adv-x="454" d="M-49 -305q125 4 181 70.5t56 193.5v1112h88v-1112q0 -163 -81 -255t-244 -93v84zM154 1352q0 37 21 58.5t56 21.5q37 0 58.5 -21.5t21.5 -58.5q0 -36 -22 -58t-58 -22q-35 0 -56 22t-21 58z" />
<glyph unicode="k" horiz-adv-x="847" d="M143 0v1481h88v-918l445 508h115l-392 -442l437 -629h-107l-391 559l-107 -117v-442h-88z" />
<glyph unicode="l" horiz-adv-x="382" d="M147 0v1481h89v-1481h-89z" />
<glyph unicode="m" horiz-adv-x="1454" d="M143 0v1071h76l12 -153v-5q41 85 112 133t163 48q194 0 252 -222q38 103 115.5 162.5t183.5 59.5q126 0 197 -103t71 -303v-688h-88v682q0 328 -199 328q-116 0 -188 -97t-72 -260v-653h-88v682q0 328 -203 328q-114 0 -185 -97t-71 -260v-653h-88z" />
<glyph unicode="n" horiz-adv-x="927" d="M143 0v1071h76l12 -139v-19q44 85 118 133t171 48q132 0 205.5 -99.5t73.5 -302.5v-692h-88v680q0 330 -211 330q-120 0 -194.5 -97t-74.5 -260v-653h-88z" />
<glyph unicode="o" horiz-adv-x="913" d="M117 344v383q0 172 91 269.5t249 97.5q157 0 248.5 -97.5t91.5 -269.5v-383q0 -172 -91.5 -269.5t-248.5 -97.5q-158 0 -249 97.5t-91 269.5zM205 344q0 -135 67 -208t185 -73t184 73t66 208v383q0 135 -66 208t-184 73t-185 -73t-67 -208v-383z" />
<glyph unicode="p" horiz-adv-x="927" d="M143 -369v1440h74l10 -129q40 72 110.5 112t158.5 40q139 0 227 -101t88 -278v-365q0 -175 -87.5 -274t-234.5 -99q-78 0 -148 37t-112 103v-486h-86zM229 342q0 -122 68.5 -202.5t173.5 -80.5q119 0 185.5 75t66.5 216v365q0 144 -66.5 220.5t-179.5 76.5 q-104 0 -176 -81.5t-72 -228.5v-360z" />
<glyph unicode="q" horiz-adv-x="927" d="M117 350v365q0 177 88 278t227 101q88 0 158 -40t110 -112l11 129h73v-1440h-86v486q-42 -66 -112 -103t-148 -37q-147 0 -234 99t-87 274zM205 350q0 -141 66.5 -216t185.5 -75q105 0 173 80.5t68 202.5v360q0 147 -71.5 228.5t-175.5 81.5q-113 0 -179.5 -76.5 t-66.5 -220.5v-365z" />
<glyph unicode="r" horiz-adv-x="663" d="M143 2v1069h76l12 -135v-25q44 86 117.5 134.5t169.5 48.5q64 0 111 -13v-94q-62 19 -129 19q-120 0 -194.5 -96.5t-74.5 -256.5v-651h-88z" />
<glyph unicode="s" horiz-adv-x="808" d="M74 303h88q3 -117 68.5 -178.5t183.5 -61.5q101 0 164 53t63 144q0 46 -19 83t-51 62.5t-73.5 47t-88 41t-92.5 39.5t-87.5 46t-73.5 58t-51 78.5t-19 103.5q0 123 85.5 199t221.5 76q142 0 228.5 -82.5t89.5 -220.5h-88q-3 104 -63.5 161.5t-166.5 57.5q-99 0 -158 -52 t-59 -141q0 -56 30.5 -98t79.5 -69t108.5 -51.5t118.5 -52.5t108 -63t79.5 -92.5t30.5 -132.5q0 -125 -89.5 -203t-227.5 -78q-153 0 -245 87.5t-95 238.5z" />
<glyph unicode="t" horiz-adv-x="589" d="M43 989v82h158v250h88v-250h231v-82h-231v-694q0 -219 200 -219h52v-84h-52q-141 0 -214.5 77.5t-73.5 225.5v694h-158z" />
<glyph unicode="u" horiz-adv-x="927" d="M129 379v692h88v-680q0 -330 211 -330q120 0 194 97t74 260v653h88v-1071h-75l-13 139v19q-44 -86 -117.5 -133.5t-170.5 -47.5q-132 0 -205.5 99.5t-73.5 302.5z" />
<glyph unicode="v" horiz-adv-x="761" d="M27 1071h94l184 -665q10 -42 37 -146t37 -143h4q9 33 36 136.5t40 152.5l184 665h92l-305 -1071h-96z" />
<glyph unicode="w" horiz-adv-x="1224" d="M27 1071h94l158 -680q14 -55 37 -165.5t24 -116.5h2q47 226 66 307l157 635h94l158 -635q19 -81 66 -307h2q1 6 24 116.5t37 165.5l158 680h94l-266 -1071h-98l-164 657q-33 131 -58 271h-2q-17 -124 -55 -271l-166 -657h-96z" />
<glyph unicode="x" horiz-adv-x="755" d="M18 0l310 539l-295 532h100l246 -448l246 448h98l-291 -532l305 -539h-104l-254 463l-256 -463h-105z" />
<glyph unicode="y" horiz-adv-x="778" d="M27 1071h96l283 -831l251 831h95l-373 -1221q-34 -113 -86 -173t-141 -60h-64v88h53q58 0 92 41t60 121l74 242z" />
<glyph unicode="z" horiz-adv-x="712" d="M37 0v74l500 915h-471v82h577v-72l-500 -917h512v-82h-618z" />
<glyph unicode="{" horiz-adv-x="677" d="M117 680v92q72 24 114.5 81t42.5 138v377q0 133 83 222t206 89v-84q-87 -3 -144 -66.5t-57 -160.5v-377q0 -86 -36.5 -156.5t-104.5 -109.5q68 -39 104.5 -109.5t36.5 -156.5v-393q0 -98 57.5 -163t143.5 -65v-84q-123 0 -206 89.5t-83 222.5v393q0 81 -42 138.5 t-115 82.5z" />
<glyph unicode="|" horiz-adv-x="380" d="M147 -168v1796h86v-1796h-86z" />
<glyph unicode="}" horiz-adv-x="677" d="M115 -160q87 3 143.5 66.5t56.5 161.5v376q0 86 37 157t105 110q-68 39 -105 109.5t-37 156.5v393q0 98 -57 162.5t-143 64.5v84q123 0 205.5 -89t82.5 -222v-393q0 -81 42.5 -138t115.5 -83v-92q-72 -24 -115 -81.5t-43 -138.5v-376q0 -133 -82.5 -222.5t-205.5 -89.5 v84z" />
<glyph unicode="~" horiz-adv-x="915" d="M111 604q75 107 174 107q50 0 115.5 -26.5t126.5 -52.5t100 -26q75 0 129 84l49 -61q-70 -111 -174 -111q-50 0 -115 26t-125.5 52.5t-99.5 26.5q-78 0 -133 -84z" />
<glyph unicode="&#xa1;" horiz-adv-x="423" d="M135 1014q0 35 21.5 56.5t56.5 21.5t56.5 -21.5t21.5 -56.5t-21.5 -56.5t-56.5 -21.5t-56.5 21.5t-21.5 56.5zM168 -369v1170h90v-1170h-90z" />
<glyph unicode="&#xa2;" horiz-adv-x="864" d="M117 342v383q0 157 74.5 251.5t205.5 108.5v132h82v-132q137 -12 216 -108t79 -258h-90q0 136 -64.5 209t-179.5 73q-110 0 -172.5 -72t-62.5 -204v-383q0 -132 63 -204t174 -72q115 0 179.5 73t64.5 211h90q0 -163 -79.5 -260t-217.5 -108v-132h-82v132 q-130 15 -205 110.5t-75 249.5z" />
<glyph unicode="&#xa3;" horiz-adv-x="952" d="M66 684v84h143v311q0 165 90 269t233 104q146 0 236.5 -102t95.5 -271h-90q-6 134 -70.5 210.5t-171.5 76.5q-104 0 -168.5 -78.5t-64.5 -208.5v-311h414v-84h-414v-367q0 -155 -74 -229h652v-88h-809v80q141 38 141 229v375h-143z" />
<glyph unicode="&#xa4;" horiz-adv-x="917" d="M82 301l94 113q-45 76 -45 196v125q0 121 45 197l-94 112l59 52l84 -99q38 40 101.5 63t132.5 23t131 -23t102 -63l84 99l60 -52l-95 -110q45 -76 45 -199v-125q0 -122 -45 -198l95 -111l-60 -51l-84 100q-40 -40 -102.5 -64t-130.5 -24q-69 0 -132.5 24t-101.5 64 l-84 -100zM219 610q0 -128 62.5 -197t177.5 -69t177 69t62 197v125q0 129 -61.5 197.5t-177.5 68.5t-178 -68.5t-62 -197.5v-125z" />
<glyph unicode="&#xa5;" horiz-adv-x="845" d="M14 1434h101l229 -592q12 -35 80 -205q38 102 78 207l229 590h100l-333 -836h276v-74h-305v-141h305v-76h-305v-307h-92v307h-305v76h305v141h-305v74h276z" />
<glyph unicode="&#xa6;" horiz-adv-x="339" d="M127 -133v586h86v-586h-86zM127 1042v586h86v-586h-86z" />
<glyph unicode="&#xa7;" horiz-adv-x="833" d="M76 739q0 98 51 167.5t145 97.5q-155 86 -155 241q0 117 78.5 188.5t207.5 71.5q144 0 226 -82.5t82 -222.5h-90q0 105 -55.5 163t-159.5 58q-92 0 -146.5 -48.5t-54.5 -127.5q0 -52 30 -94t78 -70t106.5 -54.5t116.5 -55.5t106 -64t78 -89.5t30 -123.5q0 -96 -49 -164.5 t-136 -101.5q152 -91 152 -244q0 -123 -83.5 -199.5t-221.5 -76.5q-148 0 -235 86.5t-87 232.5h88q2 -109 62.5 -170t171.5 -61q100 0 157.5 50.5t57.5 139.5q0 56 -30.5 99.5t-79 71.5t-107 53t-117.5 53t-107.5 62t-79 88.5t-30.5 125.5zM166 743q0 -87 68 -141.5 t229 -118.5q92 10 144 65.5t52 135.5q0 38 -13.5 71t-35 57t-60.5 49t-76 43.5t-95 43.5q-93 -6 -153 -60t-60 -145z" />
<glyph unicode="&#xa9;" horiz-adv-x="1449" d="M127 608v219q0 304 156 466.5t444 162.5q286 0 441 -162.5t155 -466.5v-219q0 -304 -155 -467.5t-441 -163.5q-288 0 -444 163.5t-156 467.5zM203 608q0 -271 134.5 -415t389.5 -144q252 0 386 144.5t134 414.5v219q0 270 -134 413.5t-386 143.5q-255 0 -389.5 -143.5 t-134.5 -413.5v-219zM469 582v268q0 132 68.5 207.5t185.5 75.5q112 0 182 -72.5t70 -196.5h-78q0 91 -47.5 141t-126.5 50q-80 0 -127 -53t-47 -152v-268q0 -98 47.5 -149.5t128.5 -51.5q80 0 129 50t49 140h80q0 -124 -71 -196t-187 -72q-117 0 -186.5 75t-69.5 204z" />
<glyph unicode="&#xab;" horiz-adv-x="882" d="M98 502v49l258 319h95l-279 -344l279 -344h-95zM434 502v49l258 319h94l-278 -344l278 -344h-94z" />
<glyph unicode="&#xac;" horiz-adv-x="915" d="M117 590v84h688v-250h-80v166h-608z" />
<glyph unicode="&#xad;" horiz-adv-x="681" d="M98 483v84h488v-84h-488z" />
<glyph unicode="&#xae;" horiz-adv-x="952" d="M133 958v138q0 173 92 266.5t258 93.5q165 0 258 -94t93 -266v-138q0 -175 -92.5 -269.5t-258.5 -94.5q-167 0 -258.5 94t-91.5 270zM178 958q0 -154 80.5 -235.5t224.5 -81.5q146 0 224.5 81.5t78.5 235.5v138q0 153 -78.5 234t-224.5 81q-144 0 -224.5 -81.5 t-80.5 -233.5v-138zM360 758v528h125q76 0 117 -40.5t41 -115.5q0 -64 -31 -104t-84 -49l125 -219h-57l-123 215h-63v-215h-50zM410 1022h84q48 0 74 27.5t26 80.5q0 107 -109 107h-75v-215z" />
<glyph unicode="&#xb0;" horiz-adv-x="651" d="M78 1196q0 116 68 187t180 71q110 0 178.5 -71.5t68.5 -186.5t-68.5 -186.5t-178.5 -71.5q-112 0 -180 71t-68 187zM150 1196q0 -85 48.5 -136.5t127.5 -51.5t127.5 51.5t48.5 136.5t-48.5 136.5t-127.5 51.5t-127.5 -51.5t-48.5 -136.5z" />
<glyph unicode="&#xb1;" horiz-adv-x="915" d="M117 178v84h682v-84h-682zM117 657v84h299v303h84v-303h299v-84h-299v-303h-84v303h-299z" />
<glyph unicode="&#xb6;" horiz-adv-x="1128" d="M117 1139q0 137 83.5 216t223.5 79h539v-1618h-93v1530h-354v-1530h-92v1026q-140 0 -223.5 80t-83.5 217z" />
<glyph unicode="&#xb7;" horiz-adv-x="358" d="M102 524q0 35 21 56.5t55 21.5q35 0 56.5 -21.5t21.5 -56.5t-21.5 -56.5t-56.5 -21.5q-34 0 -55 21.5t-21 56.5z" />
<glyph unicode="&#xbb;" horiz-adv-x="882" d="M96 182l279 344l-279 344h94l259 -319v-49l-259 -320h-94zM432 182l279 344l-279 344h94l258 -319v-49l-258 -320h-94z" />
<glyph unicode="&#xbf;" horiz-adv-x="759" d="M74 -45q0 70 16 130.5t42 105.5t57 87t62.5 83t57.5 84.5t42 101.5t16 125v131h92v-141q0 -81 -22 -151.5t-54.5 -117t-71 -98t-71 -95.5t-54.5 -108t-22 -137q0 -111 66 -179.5t169 -68.5t169.5 71.5t66.5 194.5h90q-4 -158 -96 -254t-230 -96q-141 0 -233 93.5 t-92 238.5zM332 1014q0 35 21 56.5t55 21.5q35 0 56 -21.5t21 -56.5t-21 -56.5t-56 -21.5q-34 0 -55 21.5t-21 56.5z" />
<glyph unicode="&#xc0;" horiz-adv-x="915" d="M27 0l379 1434h104l379 -1434h-98l-95 367h-477l-94 -367h-98zM236 1800h110l184 -223h-90zM242 453h432l-150 587q-15 58 -38.5 159t-26.5 114h-2q-5 -20 -17.5 -73.5t-25 -105t-23.5 -94.5z" />
<glyph unicode="&#xc1;" horiz-adv-x="915" d="M27 0l379 1434h104l379 -1434h-98l-95 367h-477l-94 -367h-98zM242 453h432l-150 587q-15 58 -38.5 159t-26.5 114h-2q-5 -20 -17.5 -73.5t-25 -105t-23.5 -94.5zM367 1577l184 223h111l-205 -223h-90z" />
<glyph unicode="&#xc2;" horiz-adv-x="915" d="M27 0l379 1434h104l379 -1434h-98l-95 367h-477l-94 -367h-98zM242 453h432l-150 587q-15 58 -38.5 159t-26.5 114h-2q-5 -20 -17.5 -73.5t-25 -105t-23.5 -94.5zM242 1577l161 223h99l162 -223h-84l-127 158l-127 -158h-84z" />
<glyph unicode="&#xc3;" horiz-adv-x="915" d="M27 0l379 1434h104l379 -1434h-98l-95 367h-477l-94 -367h-98zM242 453h432l-150 587q-15 58 -38.5 159t-26.5 114h-2q-5 -20 -17.5 -73.5t-25 -105t-23.5 -94.5zM242 1638q3 69 37.5 110.5t91.5 41.5q37 0 67 -20.5t54 -41t45 -20.5q51 0 57 76h78q-6 -70 -40 -111 t-89 -41q-36 0 -65.5 20.5t-54 41t-46.5 20.5q-47 0 -53 -76h-82z" />
<glyph unicode="&#xc4;" horiz-adv-x="915" d="M27 0l379 1434h104l379 -1434h-98l-95 367h-477l-94 -367h-98zM242 453h432l-150 587q-15 58 -38.5 159t-26.5 114h-2q-5 -20 -17.5 -73.5t-25 -105t-23.5 -94.5zM260 1700q0 30 19.5 48.5t50.5 18.5t49 -18t18 -49q0 -32 -18 -50t-49 -18t-50.5 18t-19.5 50zM510 1700 q0 30 19.5 48.5t50.5 18.5q32 0 50.5 -18t18.5 -49q0 -32 -18.5 -50t-50.5 -18q-31 0 -50.5 18t-19.5 50z" />
<glyph unicode="&#xc5;" horiz-adv-x="915" d="M27 0l379 1434h104l379 -1434h-98l-95 367h-477l-94 -367h-98zM242 453h432l-150 587q-15 58 -38.5 159t-26.5 114h-2q-5 -20 -17.5 -73.5t-25 -105t-23.5 -94.5zM322 1712q0 58 36.5 93.5t96.5 35.5q61 0 98 -35t37 -94q0 -62 -37 -98.5t-98 -36.5q-60 0 -96.5 37 t-36.5 98zM383 1710q0 -34 20 -54t52 -20t51.5 20t19.5 54q0 31 -19.5 51.5t-51.5 20.5t-52 -20.5t-20 -51.5z" />
<glyph unicode="&#xc6;" horiz-adv-x="1388" d="M0 0l643 1434h647v-86h-512v-576h475v-86h-475v-600h527v-86h-619v393h-407l-175 -393h-104zM315 477h371v852h-2l-111 -264z" />
<glyph unicode="&#xc7;" horiz-adv-x="970" d="M127 401v631q0 205 100.5 315.5t270.5 110.5q173 0 273 -103t112 -298h-90q-24 317 -295 317q-130 0 -205.5 -86.5t-75.5 -255.5v-631q0 -168 76.5 -255t208.5 -87q274 0 301 318h90q-13 -184 -104 -286.5t-248 -113.5l-27 -86q25 5 37 5q61 0 102 -39t41 -99 q0 -71 -49.5 -112t-128.5 -41q-72 0 -120.5 41t-53.5 104h76q6 -35 33 -55.5t67 -20.5q45 0 72.5 22.5t27.5 61.5t-23.5 61.5t-62.5 22.5q-47 0 -69 -16l-29 27l39 122q-159 9 -252.5 120t-93.5 306z" />
<glyph unicode="&#xc8;" horiz-adv-x="913" d="M166 0v1434h649v-86h-557v-576h518v-86h-518v-600h571v-86h-663zM276 1800h111l184 -223h-90z" />
<glyph unicode="&#xc9;" horiz-adv-x="913" d="M166 0v1434h649v-86h-557v-576h518v-86h-518v-600h571v-86h-663zM369 1577l184 223h111l-205 -223h-90z" />
<glyph unicode="&#xca;" horiz-adv-x="913" d="M166 0v1434h649v-86h-557v-576h518v-86h-518v-600h571v-86h-663zM283 1577l161 223h99l162 -223h-84l-127 158l-127 -158h-84z" />
<glyph unicode="&#xcb;" horiz-adv-x="913" d="M166 0v1434h649v-86h-557v-576h518v-86h-518v-600h571v-86h-663zM301 1700q0 30 19.5 48.5t50.5 18.5t49 -18t18 -49q0 -32 -18 -50t-49 -18t-50.5 18t-19.5 50zM551 1700q0 30 19.5 48.5t50.5 18.5q32 0 50.5 -18t18.5 -49q0 -32 -18.5 -50t-50.5 -18q-31 0 -50.5 18 t-19.5 50z" />
<glyph unicode="&#xcc;" horiz-adv-x="423" d="M-4 1800h110l185 -223h-90zM166 0v1434h92v-1434h-92z" />
<glyph unicode="&#xcd;" horiz-adv-x="423" d="M127 1577l184 223h111l-205 -223h-90zM166 0v1434h92v-1434h-92z" />
<glyph unicode="&#xce;" horiz-adv-x="423" d="M2 1577l162 223h98l162 -223h-84l-127 158l-127 -158h-84zM166 0v1434h92v-1434h-92z" />
<glyph unicode="&#xcf;" horiz-adv-x="442" d="M43 1700q0 31 18.5 49t49.5 18t50 -18t19 -49q0 -32 -19 -50t-50 -18t-49.5 18t-18.5 50zM172 0v1434h94v-1434h-94zM260 1700q0 31 20 49t52 18q31 0 49 -18t18 -49q0 -32 -18 -50t-49 -18q-33 0 -52.5 18t-19.5 50z" />
<glyph unicode="&#xd0;" horiz-adv-x="1036" d="M25 686v84h168v664h311q193 0 299 -106.5t106 -303.5v-604q0 -199 -107 -309.5t-298 -110.5h-311v686h-168zM287 88h217q150 0 231.5 86.5t81.5 249.5v596q0 161 -80.5 243.5t-232.5 82.5h-217v-576h217v-84h-217v-598z" />
<glyph unicode="&#xd1;" horiz-adv-x="1093" d="M166 0v1434h96l457 -977q55 -115 121 -275l4 2q-10 200 -10 301v949h94v-1434h-97l-460 983q-75 167 -115 268l-4 -2q6 -129 6 -297v-952h-92zM336 1638q3 69 37.5 110.5t91.5 41.5q37 0 67 -20.5t54 -41t45 -20.5q51 0 57 76h78q-6 -70 -40 -111t-89 -41 q-36 0 -65.5 20.5t-54 41t-46.5 20.5q-47 0 -53 -76h-82z" />
<glyph unicode="&#xd2;" horiz-adv-x="1048" d="M127 424v584q0 214 105.5 332t291.5 118q187 0 293.5 -118t106.5 -332v-584q0 -211 -106.5 -330t-293.5 -119q-185 0 -291 119t-106 330zM221 424q0 -174 78.5 -266t224.5 -92q147 0 226 92t79 266v584q0 176 -79 268t-226 92q-146 0 -224.5 -92t-78.5 -268v-584z M305 1800h111l184 -223h-90z" />
<glyph unicode="&#xd3;" horiz-adv-x="1048" d="M127 424v584q0 214 105.5 332t291.5 118q187 0 293.5 -118t106.5 -332v-584q0 -211 -106.5 -330t-293.5 -119q-185 0 -291 119t-106 330zM221 424q0 -174 78.5 -266t224.5 -92q147 0 226 92t79 266v584q0 176 -79 268t-226 92q-146 0 -224.5 -92t-78.5 -268v-584z M436 1577l185 223h110l-205 -223h-90z" />
<glyph unicode="&#xd4;" horiz-adv-x="1048" d="M127 424v584q0 214 105.5 332t291.5 118q187 0 293.5 -118t106.5 -332v-584q0 -211 -106.5 -330t-293.5 -119q-185 0 -291 119t-106 330zM221 424q0 -174 78.5 -266t224.5 -92q147 0 226 92t79 266v584q0 176 -79 268t-226 92q-146 0 -224.5 -92t-78.5 -268v-584z M311 1577l162 223h98l162 -223h-84l-127 158l-127 -158h-84z" />
<glyph unicode="&#xd5;" horiz-adv-x="1048" d="M127 424v584q0 214 105.5 332t291.5 118q187 0 293.5 -118t106.5 -332v-584q0 -211 -106.5 -330t-293.5 -119q-185 0 -291 119t-106 330zM221 424q0 -174 78.5 -266t224.5 -92q147 0 226 92t79 266v584q0 176 -79 268t-226 92q-146 0 -224.5 -92t-78.5 -268v-584z M311 1638q3 69 37.5 110.5t91.5 41.5q37 0 67 -20.5t54 -41t45 -20.5q52 0 58 76h77q-6 -70 -40 -111t-89 -41q-36 0 -65.5 20.5t-54 41t-46.5 20.5q-47 0 -53 -76h-82z" />
<glyph unicode="&#xd6;" horiz-adv-x="1048" d="M127 424v584q0 214 105.5 332t291.5 118q187 0 293.5 -118t106.5 -332v-584q0 -211 -106.5 -330t-293.5 -119q-185 0 -291 119t-106 330zM221 424q0 -174 78.5 -266t224.5 -92q147 0 226 92t79 266v584q0 176 -79 268t-226 92q-146 0 -224.5 -92t-78.5 -268v-584z M330 1700q0 31 19 49t50 18t49.5 -18t18.5 -49q0 -32 -18.5 -50t-49.5 -18t-50 18t-19 50zM580 1700q0 31 19 49t50 18q32 0 51 -18t19 -49q0 -32 -19 -50t-51 -18q-31 0 -50 18t-19 50z" />
<glyph unicode="&#xd7;" horiz-adv-x="876" d="M92 336l287 287l-285 284l58 62l286 -287l289 285l57 -60l-286 -284l286 -287l-57 -60l-289 287l-286 -287z" />
<glyph unicode="&#xd8;" horiz-adv-x="1042" d="M127 426v582q0 213 104.5 331.5t288.5 118.5q104 0 182 -37l37 121h88l-51 -170q139 -117 139 -364v-582q0 -213 -105 -332t-290 -119q-86 0 -162 29l-34 -115h-88l47 158q-75 56 -115.5 153t-40.5 226zM221 426q0 -191 92 -283l363 1188q-64 37 -156 37 q-144 0 -221.5 -92t-77.5 -268v-582zM385 92q56 -26 135 -26q146 0 223.5 92t77.5 268v582q0 171 -76 266z" />
<glyph unicode="&#xd9;" horiz-adv-x="1032" d="M141 406v1028h95v-1028q0 -166 75 -251t205 -85t205.5 85t75.5 251v1028h94v-1028q0 -204 -101.5 -314t-273.5 -110t-273.5 110t-101.5 314zM297 1800h111l184 -223h-90z" />
<glyph unicode="&#xda;" horiz-adv-x="1032" d="M141 406v1028h95v-1028q0 -166 75 -251t205 -85t205.5 85t75.5 251v1028h94v-1028q0 -204 -101.5 -314t-273.5 -110t-273.5 110t-101.5 314zM428 1577l184 223h111l-205 -223h-90z" />
<glyph unicode="&#xdb;" horiz-adv-x="1032" d="M141 406v1028h95v-1028q0 -166 75 -251t205 -85t205.5 85t75.5 251v1028h94v-1028q0 -204 -101.5 -314t-273.5 -110t-273.5 110t-101.5 314zM303 1577l162 223h98l162 -223h-84l-127 158l-127 -158h-84z" />
<glyph unicode="&#xdc;" horiz-adv-x="1032" d="M141 406v1028h95v-1028q0 -166 75 -251t205 -85t205.5 85t75.5 251v1028h94v-1028q0 -204 -101.5 -314t-273.5 -110t-273.5 110t-101.5 314zM322 1700q0 31 19 49t50 18t49.5 -18t18.5 -49q0 -32 -18.5 -50t-49.5 -18t-50 18t-19 50zM571 1700q0 30 19.5 48.5t50.5 18.5 q32 0 51 -18t19 -49q0 -32 -19 -50t-51 -18q-31 0 -50.5 18t-19.5 50z" />
<glyph unicode="&#xdd;" horiz-adv-x="845" d="M14 1434h101l229 -592q12 -35 80 -205q38 102 78 207l229 590h100l-362 -908v-526h-92v526zM334 1577l184 223h111l-205 -223h-90z" />
<glyph unicode="&#xde;" horiz-adv-x="937" d="M166 2v1432h92v-258h225q194 0 298 -112t104 -321q0 -217 -106 -330.5t-294 -113.5h-227v-297h-92zM258 387h227q305 0 308 356q0 344 -310 344h-225v-700z" />
<glyph unicode="&#xdf;" horiz-adv-x="921" d="M143 0v1065q0 186 81 289.5t231 103.5q155 0 241 -102t86 -281q0 -132 -46 -217.5t-138 -109.5q121 -26 183.5 -119t62.5 -240q0 -186 -100.5 -287.5t-278.5 -101.5h-135v88h135q285 0 285 303q0 146 -72.5 226.5t-216.5 80.5h-131v88h114q122 0 184 76.5t62 214.5 q0 143 -59 219t-176 76q-222 0 -222 -307v-1065h-90z" />
<glyph unicode="&#xe0;" horiz-adv-x="903" d="M90 303q0 151 94 233t267 82h221v136q0 123 -58.5 189.5t-167.5 66.5q-102 0 -166 -57t-67 -150h-90q8 131 95.5 211t230.5 80q146 0 228.5 -90t82.5 -248v-756h-78l-8 115q-37 -63 -104 -100.5t-160 -37.5q-144 0 -232 86.5t-88 239.5zM180 301q0 -113 65.5 -175.5 t176.5 -62.5q119 0 184.5 66.5t65.5 181.5v226h-223q-131 0 -200 -61t-69 -175zM276 1466h107l154 -225h-88z" />
<glyph unicode="&#xe1;" horiz-adv-x="903" d="M90 303q0 151 94 233t267 82h221v136q0 123 -58.5 189.5t-167.5 66.5q-102 0 -166 -57t-67 -150h-90q8 131 95.5 211t230.5 80q146 0 228.5 -90t82.5 -248v-756h-78l-8 115q-37 -63 -104 -100.5t-160 -37.5q-144 0 -232 86.5t-88 239.5zM180 301q0 -113 65.5 -175.5 t176.5 -62.5q119 0 184.5 66.5t65.5 181.5v226h-223q-131 0 -200 -61t-69 -175zM350 1241l154 225h106l-172 -225h-88z" />
<glyph unicode="&#xe2;" horiz-adv-x="903" d="M90 303q0 151 94 233t267 82h221v136q0 123 -58.5 189.5t-167.5 66.5q-102 0 -166 -57t-67 -150h-90q8 131 95.5 211t230.5 80q146 0 228.5 -90t82.5 -248v-756h-78l-8 115q-37 -63 -104 -100.5t-160 -37.5q-144 0 -232 86.5t-88 239.5zM180 301q0 -113 65.5 -175.5 t176.5 -62.5q119 0 184.5 66.5t65.5 181.5v226h-223q-131 0 -200 -61t-69 -175zM238 1241l161 223h99l161 -223h-84l-126 158l-127 -158h-84z" />
<glyph unicode="&#xe3;" horiz-adv-x="903" d="M90 303q0 151 94 233t267 82h221v136q0 123 -58.5 189.5t-167.5 66.5q-102 0 -166 -57t-67 -150h-90q8 131 95.5 211t230.5 80q146 0 228.5 -90t82.5 -248v-756h-78l-8 115q-37 -63 -104 -100.5t-160 -37.5q-144 0 -232 86.5t-88 239.5zM180 301q0 -113 65.5 -175.5 t176.5 -62.5q119 0 184.5 66.5t65.5 181.5v226h-223q-131 0 -200 -61t-69 -175zM233 1282q3 69 37.5 110.5t91.5 41.5q37 0 67 -20.5t54 -41t45 -20.5q52 0 58 75h78q-6 -70 -40 -110.5t-89 -40.5q-36 0 -65.5 20.5t-54 41t-46.5 20.5q-48 0 -54 -76h-82z" />
<glyph unicode="&#xe4;" horiz-adv-x="903" d="M90 303q0 151 94 233t267 82h221v136q0 123 -58.5 189.5t-167.5 66.5q-102 0 -166 -57t-67 -150h-90q8 131 95.5 211t230.5 80q146 0 228.5 -90t82.5 -248v-756h-78l-8 115q-37 -63 -104 -100.5t-160 -37.5q-144 0 -232 86.5t-88 239.5zM180 301q0 -113 65.5 -175.5 t176.5 -62.5q119 0 184.5 66.5t65.5 181.5v226h-223q-131 0 -200 -61t-69 -175zM266 1354q0 31 19 49t51 18q31 0 49 -18t18 -49q0 -32 -18 -50t-49 -18q-32 0 -51 18t-19 50zM492 1354q0 31 19.5 49t51.5 18q31 0 49.5 -18t18.5 -49q0 -32 -18.5 -50t-49.5 -18 q-33 0 -52 18t-19 50z" />
<glyph unicode="&#xe5;" horiz-adv-x="903" d="M90 303q0 151 94 233t267 82h221v136q0 123 -58.5 189.5t-167.5 66.5q-102 0 -166 -57t-67 -150h-90q8 131 95.5 211t230.5 80q146 0 228.5 -90t82.5 -248v-756h-78l-8 115q-37 -63 -104 -100.5t-160 -37.5q-144 0 -232 86.5t-88 239.5zM180 301q0 -113 65.5 -175.5 t176.5 -62.5q119 0 184.5 66.5t65.5 181.5v226h-223q-131 0 -200 -61t-69 -175zM315 1368q0 58 37 93.5t97 35.5q61 0 98 -35t37 -94q0 -62 -37 -98.5t-98 -36.5q-60 0 -97 37t-37 98zM377 1366q0 -34 20 -54t52 -20t51.5 20t19.5 54q0 31 -19.5 51.5t-51.5 20.5t-52 -20.5 t-20 -51.5z" />
<glyph unicode="&#xe6;" horiz-adv-x="1404" d="M90 297q0 148 93 224.5t272 76.5h194v170q0 113 -55.5 176.5t-155.5 63.5q-102 0 -162 -55t-63 -148h-88q6 131 91 210t226 79q90 0 156 -43t100 -123q40 80 112 123t167 43q149 0 236 -97t87 -266v-215h-561v-174q0 -133 62.5 -204.5t175.5 -71.5t176.5 70t63.5 200h88 q0 -166 -88 -261t-240 -95q-98 0 -171 43t-112 122q-33 -76 -107.5 -119.5t-178.5 -43.5q-144 0 -231 85t-87 230zM180 295q0 -112 65 -172t181 -60q106 0 164.5 64.5t58.5 173.5v215h-198q-271 0 -271 -221zM739 596h471v135q0 133 -61 205t-172 72q-113 0 -175.5 -72 t-62.5 -205v-135z" />
<glyph unicode="&#xe7;" horiz-adv-x="872" d="M117 342v389q0 169 87.5 266t237.5 97q156 0 245.5 -97.5t92.5 -271.5h-90q-3 137 -67.5 210t-180.5 73q-111 0 -174 -72.5t-63 -204.5v-389q0 -132 63.5 -204t175.5 -72q118 0 182.5 72.5t67.5 211.5h90q-3 -168 -86.5 -265t-230.5 -105l-27 -89q25 5 37 5 q61 0 102.5 -39.5t41.5 -98.5q0 -71 -49.5 -112t-129.5 -41q-72 0 -120.5 41t-53.5 104h76q6 -35 33 -55.5t67 -20.5q45 0 73 22.5t28 61.5t-23.5 61.5t-62.5 22.5q-48 0 -70 -16l-29 27l41 129q-133 14 -208.5 109t-75.5 251z" />
<glyph unicode="&#xe8;" horiz-adv-x="903" d="M117 342v389q0 169 89.5 266t242.5 97q155 0 246 -97t91 -266v-239h-581v-150q0 -132 64.5 -204t179.5 -72q239 0 264 256h90q-14 -162 -105.5 -252t-251.5 -90q-153 0 -241 97t-88 265zM205 573h493v158q0 133 -65.5 205t-183.5 72q-115 0 -179.5 -72t-64.5 -205v-158z M274 1460h107l154 -225h-89z" />
<glyph unicode="&#xe9;" horiz-adv-x="903" d="M117 342v389q0 169 89.5 266t242.5 97q155 0 246 -97t91 -266v-239h-581v-150q0 -132 64.5 -204t179.5 -72q239 0 264 256h90q-14 -162 -105.5 -252t-251.5 -90q-153 0 -241 97t-88 265zM205 573h493v158q0 133 -65.5 205t-183.5 72q-115 0 -179.5 -72t-64.5 -205v-158z M348 1235l154 225h106l-172 -225h-88z" />
<glyph unicode="&#xea;" horiz-adv-x="903" d="M117 342v389q0 169 89.5 266t242.5 97q155 0 246 -97t91 -266v-239h-581v-150q0 -132 64.5 -204t179.5 -72q239 0 264 256h90q-14 -162 -105.5 -252t-251.5 -90q-153 0 -241 97t-88 265zM205 573h493v158q0 133 -65.5 205t-183.5 72q-115 0 -179.5 -72t-64.5 -205v-158z M236 1235l161 223h99l161 -223h-84l-127 158l-127 -158h-83z" />
<glyph unicode="&#xeb;" horiz-adv-x="903" d="M117 342v389q0 169 89.5 266t242.5 97q155 0 246 -97t91 -266v-239h-581v-150q0 -132 64.5 -204t179.5 -72q239 0 264 256h90q-14 -162 -105.5 -252t-251.5 -90q-153 0 -241 97t-88 265zM205 573h493v158q0 133 -65.5 205t-183.5 72q-115 0 -179.5 -72t-64.5 -205v-158z M264 1348q0 31 19 49t51 18q31 0 49 -18t18 -49q0 -32 -18 -50t-49 -18q-32 0 -51 18t-19 50zM489 1348q0 31 20 49t52 18q31 0 49.5 -18t18.5 -49q0 -32 -18.5 -50t-49.5 -18q-33 0 -52.5 18t-19.5 50z" />
<glyph unicode="&#xec;" horiz-adv-x="372" d="M16 1466h107l153 -225h-88zM143 0v1071h88v-1071h-88z" />
<glyph unicode="&#xed;" horiz-adv-x="372" d="M90 1241l154 225h106l-172 -225h-88zM143 0v1071h88v-1071h-88z" />
<glyph unicode="&#xee;" horiz-adv-x="458" d="M27 1241l153 223h99l153 -223h-84l-119 156l-118 -156h-84zM184 0v1071h88v-1071h-88z" />
<glyph unicode="&#xef;" horiz-adv-x="409" d="M27 1354q0 30 18.5 47.5t48.5 17.5q31 0 49.5 -17.5t18.5 -47.5q0 -32 -18.5 -50t-49.5 -18q-30 0 -48.5 18t-18.5 50zM160 0v1071h88v-1071h-88zM246 1354q0 31 18.5 48t50.5 17q30 0 49 -17.5t19 -47.5q0 -32 -19 -50t-49 -18q-32 0 -50.5 18t-18.5 50z" />
<glyph unicode="&#xf0;" horiz-adv-x="911" d="M117 344v336q0 169 86 266.5t227 97.5q178 0 266 -131q-9 210 -131 342l-184 -104l-27 55l168 92q-94 79 -221 117l29 80q163 -44 274 -149l144 79l24 -53l-127 -72q139 -165 139 -413v-543q0 -170 -91.5 -267t-248.5 -97q-151 0 -239 97t-88 267zM205 344 q0 -134 63.5 -206t177.5 -72q118 0 183 72t65 206v336q0 134 -65 206t-180 72q-116 0 -180 -72t-64 -206v-336z" />
<glyph unicode="&#xf1;" horiz-adv-x="927" d="M143 0v1071h76l12 -139v-19q44 85 118 133t171 48q132 0 205.5 -99.5t73.5 -302.5v-692h-88v680q0 330 -211 330q-120 0 -194.5 -97t-74.5 -260v-653h-88zM246 1276q3 69 37.5 110t91.5 41q37 0 67 -20.5t54 -40.5t45 -20q51 0 57 75h78q-6 -70 -40 -110.5t-89 -40.5 q-36 0 -65.5 20.5t-54 41t-46.5 20.5q-47 0 -53 -76h-82z" />
<glyph unicode="&#xf2;" horiz-adv-x="913" d="M117 344v383q0 172 91 269.5t249 97.5q157 0 248.5 -97.5t91.5 -269.5v-383q0 -172 -91.5 -269.5t-248.5 -97.5q-158 0 -249 97.5t-91 269.5zM205 344q0 -135 67 -208t185 -73t184 73t66 208v383q0 135 -66 208t-184 73t-185 -73t-67 -208v-383zM285 1466h106l154 -225 h-88z" />
<glyph unicode="&#xf3;" horiz-adv-x="913" d="M117 344v383q0 172 91 269.5t249 97.5q157 0 248.5 -97.5t91.5 -269.5v-383q0 -172 -91.5 -269.5t-248.5 -97.5q-158 0 -249 97.5t-91 269.5zM205 344q0 -135 67 -208t185 -73t184 73t66 208v383q0 135 -66 208t-184 73t-185 -73t-67 -208v-383zM358 1241l154 225h106 l-172 -225h-88z" />
<glyph unicode="&#xf4;" horiz-adv-x="913" d="M117 344v383q0 172 91 269.5t249 97.5q157 0 248.5 -97.5t91.5 -269.5v-383q0 -172 -91.5 -269.5t-248.5 -97.5q-158 0 -249 97.5t-91 269.5zM205 344q0 -135 67 -208t185 -73t184 73t66 208v383q0 135 -66 208t-184 73t-185 -73t-67 -208v-383zM246 1241l162 223h98 l162 -223h-84l-127 158l-127 -158h-84z" />
<glyph unicode="&#xf5;" horiz-adv-x="913" d="M117 344v383q0 172 91 269.5t249 97.5q157 0 248.5 -97.5t91.5 -269.5v-383q0 -172 -91.5 -269.5t-248.5 -97.5q-158 0 -249 97.5t-91 269.5zM205 344q0 -135 67 -208t185 -73t184 73t66 208v383q0 135 -66 208t-184 73t-185 -73t-67 -208v-383zM242 1282 q3 69 37.5 110.5t91.5 41.5q37 0 67 -20.5t54 -41t45 -20.5q51 0 57 75h78q-6 -70 -40 -110.5t-89 -40.5q-36 0 -65.5 20.5t-54 41t-46.5 20.5q-47 0 -53 -76h-82z" />
<glyph unicode="&#xf6;" horiz-adv-x="913" d="M117 344v383q0 172 91 269.5t249 97.5q157 0 248.5 -97.5t91.5 -269.5v-383q0 -172 -91.5 -269.5t-248.5 -97.5q-158 0 -249 97.5t-91 269.5zM205 344q0 -135 67 -208t185 -73t184 73t66 208v383q0 135 -66 208t-184 73t-185 -73t-67 -208v-383zM274 1354q0 31 19 49 t51 18q31 0 49.5 -18t18.5 -49q0 -32 -18.5 -50t-49.5 -18q-32 0 -51 18t-19 50zM500 1354q0 31 19.5 49t51.5 18q31 0 49.5 -18t18.5 -49q0 -32 -18.5 -50t-49.5 -18q-33 0 -52 18t-19 50z" />
<glyph unicode="&#xf7;" horiz-adv-x="882" d="M100 590v84h682v-84h-682zM365 344q0 34 22.5 56t54.5 22q33 0 55.5 -22.5t22.5 -55.5q0 -31 -23 -53.5t-55 -22.5t-54.5 22.5t-22.5 53.5zM365 909q0 32 22.5 55t54.5 23t55 -23t23 -55t-23 -55t-55 -23t-54.5 23t-22.5 55z" />
<glyph unicode="&#xf8;" horiz-adv-x="913" d="M117 346v381q0 172 91 269.5t249 97.5q92 0 159 -33l52 133h88l-70 -178q111 -100 111 -289v-381q0 -171 -92 -268.5t-248 -97.5q-93 0 -162 34l-51 -133h-86l69 178q-110 93 -110 287zM205 346q0 -124 57 -196l322 829q-56 29 -127 29q-118 0 -185 -73t-67 -208v-381z M328 94q54 -28 129 -28q118 0 184 72.5t66 207.5v381q0 123 -58 197z" />
<glyph unicode="&#xf9;" horiz-adv-x="927" d="M129 379v692h88v-680q0 -330 211 -330q120 0 194 97t74 260v653h88v-1071h-75l-13 139v19q-44 -86 -117.5 -133.5t-170.5 -47.5q-132 0 -205.5 99.5t-73.5 302.5zM283 1460h106l154 -225h-88z" />
<glyph unicode="&#xfa;" horiz-adv-x="927" d="M129 379v692h88v-680q0 -330 211 -330q120 0 194 97t74 260v653h88v-1071h-75l-13 139v19q-44 -86 -117.5 -133.5t-170.5 -47.5q-132 0 -205.5 99.5t-73.5 302.5zM356 1235l154 225h106l-172 -225h-88z" />
<glyph unicode="&#xfb;" horiz-adv-x="927" d="M129 379v692h88v-680q0 -330 211 -330q120 0 194 97t74 260v653h88v-1071h-75l-13 139v19q-44 -86 -117.5 -133.5t-170.5 -47.5q-132 0 -205.5 99.5t-73.5 302.5zM244 1235l162 223h98l162 -223h-84l-127 158l-127 -158h-84z" />
<glyph unicode="&#xfc;" horiz-adv-x="927" d="M129 379v692h88v-680q0 -330 211 -330q120 0 194 97t74 260v653h88v-1071h-75l-13 139v19q-44 -86 -117.5 -133.5t-170.5 -47.5q-132 0 -205.5 99.5t-73.5 302.5zM272 1348q0 31 19 49t51 18q31 0 49.5 -18t18.5 -49q0 -32 -18.5 -50t-49.5 -18q-32 0 -51 18t-19 50z M498 1348q0 31 19.5 49t51.5 18q31 0 49.5 -18t18.5 -49q0 -32 -18.5 -50t-49.5 -18q-33 0 -52 18t-19 50z" />
<glyph unicode="&#xfd;" horiz-adv-x="778" d="M27 1071h96l283 -831l251 831h95l-373 -1221q-34 -113 -86 -173t-141 -60h-64v88h53q58 0 92 41t60 121l74 242zM285 1241l153 225h107l-172 -225h-88z" />
<glyph unicode="&#xfe;" horiz-adv-x="921" d="M143 -369v1846h86v-525q42 64 111 99.5t149 35.5q143 0 229.5 -99t86.5 -273v-340q0 -174 -86.5 -273.5t-229.5 -99.5q-78 0 -148 36.5t-112 102.5v-510h-86zM229 367q0 -122 68.5 -202.5t173.5 -80.5q116 0 181 75t65 216v340q0 142 -65 216.5t-181 74.5 q-105 0 -173.5 -80.5t-68.5 -202.5v-356z" />
<glyph unicode="&#xff;" horiz-adv-x="778" d="M27 1071h96l283 -831l251 831h95l-373 -1221q-34 -113 -86 -173t-141 -60h-64v88h53q58 0 92 41t60 121l74 242zM201 1354q0 31 18.5 49t50.5 18q31 0 49.5 -18t18.5 -49q0 -32 -18.5 -50t-49.5 -18q-32 0 -50.5 18t-18.5 50zM426 1354q0 31 20 49t52 18q31 0 49 -18 t18 -49q0 -32 -18 -50t-49 -18q-33 0 -52.5 18t-19.5 50z" />
<glyph unicode="&#x100;" horiz-adv-x="915" d="M27 0l379 1434h104l379 -1434h-98l-95 367h-477l-94 -367h-98zM242 453h432l-150 587q-15 58 -38.5 159t-26.5 114h-2q-5 -20 -17.5 -73.5t-25 -105t-23.5 -94.5zM276 1642v80h359v-80h-359z" />
<glyph unicode="&#x101;" horiz-adv-x="903" d="M90 303q0 151 94 233t267 82h221v136q0 123 -58.5 189.5t-167.5 66.5q-102 0 -166 -57t-67 -150h-90q8 131 95.5 211t230.5 80q146 0 228.5 -90t82.5 -248v-756h-78l-8 115q-37 -63 -104 -100.5t-160 -37.5q-144 0 -232 86.5t-88 239.5zM180 301q0 -113 65.5 -175.5 t176.5 -62.5q119 0 184.5 66.5t65.5 181.5v226h-223q-131 0 -200 -61t-69 -175zM270 1300v76h359v-76h-359z" />
<glyph unicode="&#x102;" horiz-adv-x="915" d="M27 0l379 1434h104l379 -1434h-98l-95 367h-477l-94 -367h-98zM238 1800h79q6 -149 138 -149q133 0 139 149h80q-3 -106 -61 -166.5t-158 -60.5q-98 0 -156 60.5t-61 166.5zM242 453h432l-150 587q-15 58 -38.5 159t-26.5 114h-2q-5 -20 -17.5 -73.5t-25 -105 t-23.5 -94.5z" />
<glyph unicode="&#x103;" horiz-adv-x="903" d="M90 303q0 151 94 233t267 82h221v136q0 123 -58.5 189.5t-167.5 66.5q-102 0 -166 -57t-67 -150h-90q8 131 95.5 211t230.5 80q146 0 228.5 -90t82.5 -248v-756h-78l-8 115q-37 -63 -104 -100.5t-160 -37.5q-144 0 -232 86.5t-88 239.5zM180 301q0 -113 65.5 -175.5 t176.5 -62.5q119 0 184.5 66.5t65.5 181.5v226h-223q-131 0 -200 -61t-69 -175zM231 1466h80q6 -149 138 -149q133 0 139 149h80q-3 -106 -61 -166.5t-158 -60.5q-98 0 -156.5 60.5t-61.5 166.5z" />
<glyph unicode="&#x104;" horiz-adv-x="917" d="M27 0l381 1434h100l381 -1434h-12q-142 -118 -142 -223q0 -42 27 -64t67 -22q34 0 58 6v-80q-30 -10 -72 -10q-80 0 -123 45.5t-43 111.5q0 127 142 236l-95 367h-477l-94 -367h-98zM242 453h432l-150 587q-15 58 -38.5 159t-26.5 114h-2q-5 -20 -17.5 -73.5t-25 -105 t-23.5 -94.5z" />
<glyph unicode="&#x105;" horiz-adv-x="913" d="M90 301q0 152 95 234.5t270 82.5h223v136q0 124 -58.5 190t-170.5 66q-103 0 -168 -57.5t-68 -149.5h-90q8 131 96.5 211t231.5 80q149 0 232 -89.5t83 -248.5v-756q-69 -53 -109.5 -111.5t-40.5 -107.5q0 -44 27.5 -67t69.5 -23q33 0 57 6v-80q-33 -10 -72 -10 q-81 0 -124.5 46t-43.5 111q0 62 42.5 123.5t115.5 112.5l-6 117q-78 -140 -256 -140q-152 0 -244 86.5t-92 237.5zM180 301q0 -114 69 -176t187 -62q116 0 179 66.5t63 181.5v226h-225q-133 0 -203 -61t-70 -175z" />
<glyph unicode="&#x106;" horiz-adv-x="970" d="M127 401v631q0 205 100.5 315.5t270.5 110.5q173 0 273 -103t112 -298h-90q-24 317 -295 317q-130 0 -205.5 -86.5t-75.5 -255.5v-631q0 -168 76.5 -255t208.5 -87q274 0 301 318h90q-13 -195 -114.5 -298.5t-276.5 -103.5q-171 0 -273 110.5t-102 315.5zM401 1577 l185 223h110l-204 -223h-91z" />
<glyph unicode="&#x107;" horiz-adv-x="872" d="M117 342v389q0 169 87.5 266t237.5 97q156 0 245.5 -97.5t92.5 -271.5h-90q-3 137 -67.5 210t-180.5 73q-111 0 -174 -72.5t-63 -204.5v-389q0 -132 63.5 -204t175.5 -72q118 0 182.5 72.5t67.5 211.5h90q-3 -174 -93.5 -272t-246.5 -98q-151 0 -239 97t-88 265z M342 1241l154 225h106l-172 -225h-88z" />
<glyph unicode="&#x10a;" horiz-adv-x="970" d="M127 401v631q0 205 100.5 315.5t270.5 110.5q173 0 273 -103t112 -298h-90q-24 317 -295 317q-130 0 -205.5 -86.5t-75.5 -255.5v-631q0 -168 76.5 -255t208.5 -87q274 0 301 318h90q-13 -195 -114.5 -298.5t-276.5 -103.5q-171 0 -273 110.5t-102 315.5zM410 1720 q0 37 21 58.5t58 21.5q36 0 58 -22t22 -58q0 -35 -22.5 -57.5t-57.5 -22.5q-36 0 -57.5 22t-21.5 58z" />
<glyph unicode="&#x10b;" horiz-adv-x="872" d="M117 342v389q0 169 87.5 266t237.5 97q156 0 245.5 -97.5t92.5 -271.5h-90q-3 137 -67.5 210t-180.5 73q-111 0 -174 -72.5t-63 -204.5v-389q0 -132 63.5 -204t175.5 -72q118 0 182.5 72.5t67.5 211.5h90q-3 -174 -93.5 -272t-246.5 -98q-151 0 -239 97t-88 265z M360 1354q0 35 21.5 57.5t56.5 22.5q36 0 58 -22t22 -58q0 -37 -21.5 -58.5t-58.5 -21.5q-35 0 -56.5 21.5t-21.5 58.5z" />
<glyph unicode="&#x10c;" horiz-adv-x="970" d="M127 401v631q0 205 100.5 315.5t270.5 110.5q173 0 273 -103t112 -298h-90q-24 317 -295 317q-130 0 -205.5 -86.5t-75.5 -255.5v-631q0 -168 76.5 -255t208.5 -87q274 0 301 318h90q-13 -195 -114.5 -298.5t-276.5 -103.5q-171 0 -273 110.5t-102 315.5zM276 1800h84 l127 -158l127 158h84l-161 -223h-99z" />
<glyph unicode="&#x10d;" horiz-adv-x="872" d="M117 342v389q0 169 87.5 266t237.5 97q156 0 245.5 -97.5t92.5 -271.5h-90q-3 137 -67.5 210t-180.5 73q-111 0 -174 -72.5t-63 -204.5v-389q0 -132 63.5 -204t175.5 -72q118 0 182.5 72.5t67.5 211.5h90q-3 -174 -93.5 -272t-246.5 -98q-151 0 -239 97t-88 265z M229 1464h84l127 -157l127 157h84l-162 -223h-98z" />
<glyph unicode="&#x10e;" horiz-adv-x="1009" d="M166 0v1434h313q193 0 298.5 -106.5t105.5 -303.5v-604q0 -199 -107 -309.5t-297 -110.5h-313zM258 88h221q150 0 231 86.5t81 249.5v596q0 161 -80.5 243.5t-231.5 82.5h-221v-1258zM260 1800h84l127 -158l127 158h84l-162 -223h-98z" />
<glyph unicode="&#x10f;" horiz-adv-x="940" d="M117 356v365q0 175 86.5 274t234.5 99q78 0 148 -37t112 -103v527h86v-1481h-73l-11 113q-42 -63 -111 -99.5t-151 -36.5q-143 0 -232 100.5t-89 278.5zM205 356q0 -145 67.5 -221t184.5 -76q103 0 172 77t69 208v385q0 122 -68 202.5t-173 80.5q-120 0 -186 -74 t-66 -217v-365zM889 1233l18 330h103l-56 -330h-65z" />
<glyph unicode="&#x110;" horiz-adv-x="1036" d="M25 686v84h168v664h311q193 0 299 -106.5t106 -303.5v-604q0 -199 -107 -309.5t-298 -110.5h-311v686h-168zM287 88h217q150 0 231.5 86.5t81.5 249.5v596q0 161 -80.5 243.5t-232.5 82.5h-217v-576h217v-84h-217v-598z" />
<glyph unicode="&#x111;" horiz-adv-x="944" d="M117 356v365q0 175 87 274t234 99q78 0 148 -37t112 -103v310h-211v71h211v146h86v-146h123v-71h-123v-1264h-73l-11 113q-42 -63 -111 -99.5t-151 -36.5q-143 0 -232 100.5t-89 278.5zM205 356q0 -145 67.5 -221t184.5 -76q103 0 172 77t69 208v385q0 122 -68 202.5 t-173 80.5q-119 0 -185.5 -74.5t-66.5 -216.5v-365z" />
<glyph unicode="&#x112;" horiz-adv-x="913" d="M166 0v1434h649v-86h-557v-576h518v-86h-518v-600h571v-86h-663zM317 1642v80h359v-80h-359z" />
<glyph unicode="&#x113;" horiz-adv-x="903" d="M117 342v389q0 169 89.5 266t242.5 97q155 0 246 -97t91 -266v-239h-581v-150q0 -132 64.5 -204t179.5 -72q239 0 264 256h90q-14 -162 -105.5 -252t-251.5 -90q-153 0 -241 97t-88 265zM205 573h493v158q0 133 -65.5 205t-183.5 72q-115 0 -179.5 -72t-64.5 -205v-158z M268 1294v76h359v-76h-359z" />
<glyph unicode="&#x116;" horiz-adv-x="913" d="M166 0v1434h649v-86h-557v-576h518v-86h-518v-600h571v-86h-663zM416 1720q0 37 21.5 58.5t58.5 21.5q36 0 57.5 -22t21.5 -58q0 -35 -22 -57.5t-57 -22.5q-36 0 -58 22t-22 58z" />
<glyph unicode="&#x117;" horiz-adv-x="903" d="M117 342v389q0 169 89.5 266t242.5 97q155 0 246 -97t91 -266v-239h-581v-150q0 -132 64.5 -204t179.5 -72q239 0 264 256h90q-14 -162 -105.5 -252t-251.5 -90q-153 0 -241 97t-88 265zM205 573h493v158q0 133 -65.5 205t-183.5 72q-115 0 -179.5 -72t-64.5 -205v-158z M367 1348q0 35 21 57t56 22q36 0 58 -21.5t22 -57.5q0 -37 -21.5 -58.5t-58.5 -21.5q-35 0 -56 21.5t-21 58.5z" />
<glyph unicode="&#x118;" horiz-adv-x="927" d="M166 0v1434h649v-86h-557v-576h520v-86h-520v-600h571v-86q-64 -53 -101.5 -111.5t-37.5 -107.5q0 -45 27 -68.5t67 -23.5q34 0 58 6v-80q-24 -8 -72 -8q-80 0 -123 45t-43 110q0 123 141 238h-579z" />
<glyph unicode="&#x119;" horiz-adv-x="901" d="M117 342v389q0 168 90 265.5t244 97.5q153 0 244 -97t91 -266v-242h-581v-147q0 -133 65 -204.5t185 -71.5q118 0 183 67.5t73 188.5h88q-7 -91 -32 -147.5t-77 -111.5q-76 -83 -112.5 -145.5t-36.5 -126.5q0 -52 26.5 -75t67.5 -23t59 4v-80q-27 -8 -73 -8 q-81 0 -123.5 47t-42.5 117q0 114 104 221v2q-53 -16 -108 -16q-155 0 -244.5 96.5t-89.5 265.5zM205 571h493v160q0 132 -64.5 204.5t-180.5 72.5q-117 0 -182.5 -71.5t-65.5 -205.5v-160z" />
<glyph unicode="&#x11a;" horiz-adv-x="913" d="M166 0v1434h649v-86h-557v-576h518v-86h-518v-600h571v-86h-663zM283 1800h84l127 -158l127 158h84l-162 -223h-99z" />
<glyph unicode="&#x11b;" horiz-adv-x="903" d="M117 342v389q0 169 89.5 266t242.5 97q155 0 246 -97t91 -266v-239h-581v-150q0 -132 64.5 -204t179.5 -72q239 0 264 256h90q-14 -162 -105.5 -252t-251.5 -90q-153 0 -241 97t-88 265zM205 573h493v158q0 133 -65.5 205t-183.5 72q-115 0 -179.5 -72t-64.5 -205v-158z M236 1458h83l127 -158l127 158h84l-161 -223h-99z" />
<glyph unicode="&#x11e;" horiz-adv-x="1003" d="M127 399v629q0 207 102 316.5t273 109.5q168 0 271.5 -103t109.5 -294h-92q-6 156 -83 232.5t-206 76.5q-131 0 -208 -84.5t-77 -253.5v-629q0 -161 80.5 -246t210.5 -85q134 0 215.5 82.5t81.5 236.5v281h-299v84h389v-365q0 -190 -108 -298.5t-279 -108.5 q-169 0 -275 110t-106 309zM274 1800h80q6 -149 138 -149q133 0 139 149h80q-3 -106 -61 -166.5t-158 -60.5q-98 0 -156.5 60.5t-61.5 166.5z" />
<glyph unicode="&#x11f;" horiz-adv-x="927" d="M117 389v326q0 178 90.5 278.5t238.5 100.5q82 0 147.5 -37.5t106.5 -108.5l9 123h77v-1141q0 -149 -86 -236t-233 -87q-148 0 -237 81.5t-97 219.5h86q9 -104 72.5 -160.5t175.5 -56.5q108 0 168.5 62t60.5 177v222q-40 -60 -104.5 -93.5t-140.5 -33.5q-149 0 -241.5 98 t-92.5 266zM205 389q0 -133 70 -206.5t188 -73.5q106 0 169.5 72t63.5 198v360q0 125 -66.5 198t-166.5 73q-119 0 -188.5 -75.5t-69.5 -219.5v-326zM240 1466h79q6 -149 138 -149q133 0 139 149h80q-3 -106 -61 -166.5t-158 -60.5q-98 0 -156 60.5t-61 166.5z" />
<glyph unicode="&#x120;" horiz-adv-x="1003" d="M127 399v629q0 207 102 316.5t273 109.5q168 0 271.5 -103t109.5 -294h-92q-6 156 -83 232.5t-206 76.5q-131 0 -208 -84.5t-77 -253.5v-629q0 -161 80.5 -246t210.5 -85q134 0 215.5 82.5t81.5 236.5v281h-299v84h389v-365q0 -190 -108 -298.5t-279 -108.5 q-169 0 -275 110t-106 309zM412 1720q0 37 21.5 58.5t58.5 21.5q36 0 57.5 -22t21.5 -58q0 -35 -22 -57.5t-57 -22.5q-36 0 -58 22t-22 58z" />
<glyph unicode="&#x121;" horiz-adv-x="927" d="M117 389v326q0 178 90.5 278.5t238.5 100.5q82 0 147.5 -37.5t106.5 -108.5l9 123h77v-1141q0 -149 -86 -236t-233 -87q-148 0 -237 81.5t-97 219.5h86q9 -104 72.5 -160.5t175.5 -56.5q108 0 168.5 62t60.5 177v222q-40 -60 -104.5 -93.5t-140.5 -33.5q-149 0 -241.5 98 t-92.5 266zM205 389q0 -133 70 -206.5t188 -73.5q106 0 169.5 72t63.5 198v360q0 125 -66.5 198t-166.5 73q-119 0 -188.5 -75.5t-69.5 -219.5v-326zM377 1354q0 35 21.5 57.5t56.5 22.5q36 0 58 -22t22 -58q0 -37 -21.5 -58.5t-58.5 -21.5q-35 0 -56.5 21.5t-21.5 58.5z " />
<glyph unicode="&#x122;" horiz-adv-x="1003" d="M127 399v629q0 207 102 316.5t273 109.5q168 0 271.5 -103t109.5 -294h-92q-6 156 -83 232.5t-206 76.5q-131 0 -208 -84.5t-77 -253.5v-629q0 -161 80.5 -246t210.5 -85q134 0 215.5 82.5t81.5 236.5v281h-299v84h389v-365q0 -190 -108 -298.5t-279 -108.5 q-169 0 -275 110t-106 309zM412 -483l34 346h107l-70 -346h-71z" />
<glyph unicode="&#x123;" horiz-adv-x="927" d="M117 389v326q0 178 90.5 278.5t238.5 100.5q82 0 147.5 -37.5t106.5 -108.5l9 123h77v-1141q0 -149 -86 -236t-233 -87q-148 0 -237 81.5t-97 219.5h86q9 -104 72.5 -160.5t175.5 -56.5q108 0 168.5 62t60.5 177v222q-40 -60 -104.5 -93.5t-140.5 -33.5q-149 0 -241.5 98 t-92.5 266zM205 389q0 -133 70 -206.5t188 -73.5q106 0 169.5 72t63.5 198v360q0 125 -66.5 198t-166.5 73q-119 0 -188.5 -75.5t-69.5 -219.5v-326zM377 1589h67l76 -344h-108z" />
<glyph unicode="&#x126;" horiz-adv-x="1101" d="M49 1085v72h135v277h92v-277h551v277h93v-277h133v-72h-133v-1085h-93v686h-551v-686h-92v1085h-135zM276 774h551v311h-551v-311z" />
<glyph unicode="&#x127;" horiz-adv-x="933" d="M18 1257v72h129v152h89v-152h208v-72h-208v-348q42 87 116 136t172 49q281 0 281 -426v-668h-90v662q0 179 -52.5 263.5t-158.5 84.5q-120 0 -194 -97.5t-74 -261.5v-651h-89v1257h-129z" />
<glyph unicode="&#x12a;" horiz-adv-x="423" d="M37 1642v80h358v-80h-358zM166 0v1434h92v-1434h-92z" />
<glyph unicode="&#x12b;" horiz-adv-x="368" d="M14 1298v78h340v-78h-340zM139 0v1071h88v-1071h-88z" />
<glyph unicode="&#x12e;" horiz-adv-x="417" d="M61 -231q0 121 101 231v1434h94v-1434q-49 -52 -79 -111.5t-30 -105.5q0 -48 28 -70t71 -22q33 0 57 6v-80q-33 -10 -74 -10q-82 0 -125 46.5t-43 115.5z" />
<glyph unicode="&#x12f;" horiz-adv-x="382" d="M45 -238q0 119 102 236v1067h89v-1065q-48 -52 -76.5 -109t-28.5 -104q0 -48 26.5 -72t67.5 -24q34 0 58 6v-80q-33 -10 -72 -10q-81 0 -123.5 45t-42.5 110zM127 1346q0 29 18.5 48t47.5 19q28 0 46.5 -19t18.5 -48q0 -28 -18.5 -47t-46.5 -19q-29 0 -47.5 19t-18.5 47z " />
<glyph unicode="&#x130;" horiz-adv-x="423" d="M135 1720q0 37 21.5 58.5t58.5 21.5q36 0 58 -22t22 -58q0 -35 -22.5 -57.5t-57.5 -22.5q-36 0 -58 22t-22 58zM166 0v1434h92v-1434h-92z" />
<glyph unicode="&#x131;" horiz-adv-x="372" d="M143 0v1071h88v-1071h-88z" />
<glyph unicode="&#x136;" horiz-adv-x="968" d="M166 0v1434h92v-719l90 127l436 592h115l-461 -623l516 -811h-110l-465 731l-121 -160v-571h-92zM424 -483l35 346h106l-69 -346h-72z" />
<glyph unicode="&#x137;" horiz-adv-x="847" d="M143 0v1481h88v-918l445 508h115l-392 -442l437 -629h-107l-391 559l-107 -117v-442h-88zM369 -483l34 346h107l-70 -346h-71z" />
<glyph unicode="&#x139;" horiz-adv-x="780" d="M150 1577l184 223h110l-204 -223h-90zM166 0v1434h92v-1346h528v-88h-620z" />
<glyph unicode="&#x13a;" horiz-adv-x="382" d="M104 1577l185 223h110l-204 -223h-91zM147 0v1481h89v-1481h-89z" />
<glyph unicode="&#x13b;" horiz-adv-x="808" d="M166 0v1434h92v-1346h528v-88h-620zM330 -483l35 346h106l-70 -346h-71z" />
<glyph unicode="&#x13c;" horiz-adv-x="438" d="M141 -483l35 346h107l-70 -346h-72zM156 0v1481h88v-1481h-88z" />
<glyph unicode="&#x13d;" horiz-adv-x="784" d="M166 0v1434h92v-1348h504v-86h-596zM498 1096l18 338h100l-55 -338h-63z" />
<glyph unicode="&#x13e;" horiz-adv-x="389" d="M147 0v1481h89v-1481h-89zM340 1225l18 338h101l-56 -338h-63z" />
<glyph unicode="&#x141;" horiz-adv-x="839" d="M53 608v88l168 66v672h92v-637l279 108v-90l-279 -106v-623h504v-86h-596v672z" />
<glyph unicode="&#x142;" horiz-adv-x="464" d="M37 713v86l149 53v625h88v-594l154 53v-84l-154 -55v-797h-88v766z" />
<glyph unicode="&#x143;" horiz-adv-x="1093" d="M166 0v1434h96l457 -977q55 -115 121 -275l4 2q-10 200 -10 301v949h94v-1434h-97l-460 983q-75 167 -115 268l-4 -2q6 -129 6 -297v-952h-92zM461 1577l184 223h111l-205 -223h-90z" />
<glyph unicode="&#x144;" horiz-adv-x="927" d="M143 0v1071h76l12 -139v-19q44 85 118 133t171 48q132 0 205.5 -99.5t73.5 -302.5v-692h-88v680q0 330 -211 330q-120 0 -194.5 -97t-74.5 -260v-653h-88zM362 1235l154 225h107l-172 -225h-89z" />
<glyph unicode="&#x145;" horiz-adv-x="1093" d="M166 0v1434h96l457 -977q55 -115 121 -275l4 2q-10 200 -10 301v949h94v-1434h-97l-460 983q-75 167 -115 268l-4 -2q6 -129 6 -297v-952h-92zM469 -483l35 346h106l-69 -346h-72z" />
<glyph unicode="&#x146;" horiz-adv-x="927" d="M143 0v1071h76l12 -139v-19q44 85 118 133t171 48q132 0 205.5 -99.5t73.5 -302.5v-692h-88v680q0 330 -211 330q-120 0 -194.5 -97t-74.5 -260v-653h-88zM406 -483l34 346h107l-70 -346h-71z" />
<glyph unicode="&#x147;" horiz-adv-x="1093" d="M166 0v1434h96l457 -977q55 -115 121 -275l4 2q-10 200 -10 301v949h94v-1434h-97l-460 983q-75 167 -115 268l-4 -2q6 -129 6 -297v-952h-92zM336 1800h84l127 -158l127 158h84l-162 -223h-98z" />
<glyph unicode="&#x148;" horiz-adv-x="927" d="M143 0v1071h76l12 -139v-19q44 85 118 133t171 48q132 0 205.5 -99.5t73.5 -302.5v-692h-88v680q0 330 -211 330q-120 0 -194.5 -97t-74.5 -260v-653h-88zM250 1458h84l127 -158l127 158h84l-162 -223h-98z" />
<glyph unicode="&#x14a;" horiz-adv-x="1093" d="M166 0v1434h96l463 -988q50 -113 119 -282h4q-14 196 -14 315v955h94v-1508q0 -149 -83 -237.5t-243 -91.5v84q236 8 236 245v64l-471 1003q-52 109 -111 258l-4 -2q6 -129 6 -297v-952h-92z" />
<glyph unicode="&#x14b;" horiz-adv-x="927" d="M143 0v1071h76l12 -160q42 86 117 134.5t172 48.5q279 0 279 -402v-760q0 -159 -82.5 -248t-243.5 -90v84q124 4 181 67.5t57 186.5v748q0 330 -211 330q-120 0 -194.5 -97t-74.5 -260v-653h-88z" />
<glyph unicode="&#x14c;" horiz-adv-x="1048" d="M127 424v584q0 214 105.5 332t291.5 118q187 0 293.5 -118t106.5 -332v-584q0 -211 -106.5 -330t-293.5 -119q-185 0 -291 119t-106 330zM221 424q0 -174 78.5 -266t224.5 -92q147 0 226 92t79 266v584q0 176 -79 268t-226 92q-146 0 -224.5 -92t-78.5 -268v-584z M346 1642v80h359v-80h-359z" />
<glyph unicode="&#x14d;" horiz-adv-x="913" d="M117 344v383q0 172 91 269.5t249 97.5q157 0 248.5 -97.5t91.5 -269.5v-383q0 -172 -91.5 -269.5t-248.5 -97.5q-158 0 -249 97.5t-91 269.5zM205 344q0 -135 67 -208t185 -73t184 73t66 208v383q0 135 -66 208t-184 73t-185 -73t-67 -208v-383zM279 1300v76h358v-76 h-358z" />
<glyph unicode="&#x150;" horiz-adv-x="1048" d="M127 424v584q0 214 105.5 332t291.5 118q187 0 293.5 -118t106.5 -332v-584q0 -211 -106.5 -330t-293.5 -119q-185 0 -291 119t-106 330zM221 424q0 -174 78.5 -266t224.5 -92q147 0 226 92t79 266v584q0 176 -79 268t-226 92q-146 0 -224.5 -92t-78.5 -268v-584z M354 1577l146 225h104l-168 -225h-82zM547 1577l153 225h103l-174 -225h-82z" />
<glyph unicode="&#x151;" horiz-adv-x="913" d="M117 344v383q0 172 91 269.5t249 97.5q157 0 248.5 -97.5t91.5 -269.5v-383q0 -172 -91.5 -269.5t-248.5 -97.5q-158 0 -249 97.5t-91 269.5zM205 344q0 -135 67 -208t185 -73t184 73t66 208v383q0 135 -66 208t-184 73t-185 -73t-67 -208v-383zM283 1241l145 225h104 l-167 -225h-82zM475 1241l154 225h102l-174 -225h-82z" />
<glyph unicode="&#x152;" horiz-adv-x="1574" d="M127 424v584q0 214 106 332t293 118q99 0 176.5 -42.5t124.5 -123.5v142h648v-86h-553v-576h516v-86h-516v-600h567v-86h-662v133q-47 -76 -125 -117t-176 -41q-187 0 -293 118.5t-106 330.5zM221 424q0 -174 79 -266t226 -92q144 0 222.5 92.5t78.5 265.5v584 q0 175 -78.5 267.5t-222.5 92.5q-147 0 -226 -92t-79 -268v-584z" />
<glyph unicode="&#x153;" horiz-adv-x="1466" d="M117 344v379q0 171 89.5 267.5t244.5 96.5q101 0 176.5 -48.5t113.5 -139.5q37 89 112 138.5t175 49.5q152 0 242 -96.5t90 -265.5v-229h-574v-154q0 -133 63.5 -204.5t178.5 -71.5q116 0 180 69.5t70 200.5h88q-6 -168 -94.5 -262t-243.5 -94q-99 0 -174.5 49 t-112.5 137q-38 -90 -113 -138t-177 -48q-154 0 -244 97t-90 267zM205 344q0 -134 65.5 -206t180.5 -72q116 0 180.5 72t64.5 206v379q0 134 -64.5 206t-180.5 72q-115 0 -180.5 -72t-65.5 -206v-379zM786 573h484v152q0 133 -63.5 204.5t-178.5 71.5t-178.5 -71.5 t-63.5 -204.5v-152z" />
<glyph unicode="&#x154;" horiz-adv-x="966" d="M166 0v1434h301q197 0 301 -107t104 -307q0 -186 -85 -299t-238 -133l350 -588h-106l-344 584h-191v-584h-92zM258 670h229q139 0 215 89t76 257q0 330 -311 330h-209v-676zM387 1577l184 223h111l-205 -223h-90z" />
<glyph unicode="&#x155;" horiz-adv-x="663" d="M143 2v1069h76l12 -135v-25q44 86 117.5 134.5t169.5 48.5q64 0 111 -13v-94q-62 19 -129 19q-120 0 -194.5 -96.5t-74.5 -256.5v-651h-88zM274 1241l154 225h107l-173 -225h-88z" />
<glyph unicode="&#x156;" horiz-adv-x="966" d="M166 0v1434h301q197 0 301 -107t104 -307q0 -186 -85 -299t-238 -133l350 -588h-106l-344 584h-191v-584h-92zM258 670h229q139 0 215 89t76 257q0 330 -311 330h-209v-676zM408 -483l34 346h107l-70 -346h-71z" />
<glyph unicode="&#x157;" horiz-adv-x="663" d="M135 -483l35 346h106l-69 -346h-72zM143 2v1069h76l12 -135v-25q44 86 117.5 134.5t169.5 48.5q64 0 111 -13v-94q-62 19 -129 19q-120 0 -194.5 -96.5t-74.5 -256.5v-651h-88z" />
<glyph unicode="&#x158;" horiz-adv-x="966" d="M166 0v1434h301q197 0 301 -107t104 -307q0 -186 -85 -299t-238 -133l350 -588h-106l-344 584h-191v-584h-92zM258 670h229q139 0 215 89t76 257q0 330 -311 330h-209v-676zM262 1800h84l127 -158l127 158h84l-162 -223h-98z" />
<glyph unicode="&#x159;" horiz-adv-x="663" d="M143 2v1069h76l12 -135v-25q44 86 117.5 134.5t169.5 48.5q64 0 111 -13v-94q-62 19 -129 19q-120 0 -194.5 -96.5t-74.5 -256.5v-651h-88zM162 1464h84l127 -157l127 157h84l-162 -223h-98z" />
<glyph unicode="&#x15a;" horiz-adv-x="901" d="M76 350h92q9 -136 82.5 -210t198.5 -74q130 0 202 75.5t72 198.5q0 72 -35 133t-90.5 105.5t-123 87t-134.5 86.5t-122.5 93.5t-90.5 120t-35 154.5q0 147 98.5 242.5t253.5 95.5q157 0 253.5 -100t105.5 -266h-94q-9 135 -78 205.5t-182 70.5q-120 0 -191.5 -67.5 t-71.5 -180.5q0 -71 35 -130.5t90.5 -103.5t123 -85.5t134.5 -85.5t122.5 -94.5t90.5 -122.5t35 -158q0 -98 -41.5 -180t-126 -133.5t-198.5 -51.5q-167 0 -267 102.5t-108 272.5zM362 1577l185 223h110l-204 -223h-91z" />
<glyph unicode="&#x15b;" horiz-adv-x="808" d="M74 303h88q3 -117 68.5 -178.5t183.5 -61.5q101 0 164 53t63 144q0 46 -19 83t-51 62.5t-73.5 47t-88 41t-92.5 39.5t-87.5 46t-73.5 58t-51 78.5t-19 103.5q0 123 85.5 199t221.5 76q142 0 228.5 -82.5t89.5 -220.5h-88q-3 104 -63.5 161.5t-166.5 57.5q-99 0 -158 -52 t-59 -141q0 -56 30.5 -98t79.5 -69t108.5 -51.5t118.5 -52.5t108 -63t79.5 -92.5t30.5 -132.5q0 -125 -89.5 -203t-227.5 -78q-153 0 -245 87.5t-95 238.5zM301 1241l154 225h106l-172 -225h-88z" />
<glyph unicode="&#x15e;" horiz-adv-x="901" d="M76 350h92q9 -136 82.5 -210t198.5 -74q130 0 202 75.5t72 198.5q0 72 -35 133t-90.5 105.5t-123 87t-134.5 86.5t-122.5 93.5t-90.5 120t-35 154.5q0 147 98.5 242.5t253.5 95.5q157 0 253.5 -100t105.5 -266h-94q-9 135 -78 205.5t-182 70.5q-120 0 -191.5 -67.5 t-71.5 -180.5q0 -71 35 -130.5t90.5 -103.5t123 -85.5t134.5 -85.5t122.5 -94.5t90.5 -122.5t35 -158q0 -143 -88 -247t-242 -116l-26 -86q25 5 37 5q61 0 102 -39t41 -99q0 -71 -49.5 -112t-128.5 -41q-72 0 -120.5 41t-53.5 104h76q6 -35 33 -55.5t67 -20.5 q45 0 72.5 22.5t27.5 61.5t-23.5 61.5t-62.5 22.5q-47 0 -69 -16l-29 27l39 122q-154 10 -245 111.5t-99 263.5z" />
<glyph unicode="&#x15f;" horiz-adv-x="808" d="M74 303h88q3 -117 68.5 -178.5t183.5 -61.5q101 0 164 53t63 144q0 46 -19 83t-51 62.5t-73.5 47t-88 41t-92.5 39.5t-87.5 46t-73.5 58t-51 78.5t-19 103.5q0 123 85.5 199t221.5 76q142 0 228.5 -82.5t89.5 -220.5h-88q-3 104 -63.5 161.5t-166.5 57.5q-99 0 -158 -52 t-59 -141q0 -56 30.5 -98t79.5 -69t108.5 -51.5t118.5 -52.5t108 -63t79.5 -92.5t30.5 -132.5q0 -122 -86 -200t-219 -81l-27 -86q25 5 37 5q61 0 102.5 -39.5t41.5 -98.5q0 -71 -49.5 -112t-129.5 -41q-72 0 -120.5 41t-53.5 104h76q6 -35 33 -55.5t67 -20.5q45 0 73 22.5 t28 61.5t-23.5 61.5t-62.5 22.5q-48 0 -70 -16l-29 27l41 127q-130 15 -206.5 100.5t-79.5 222.5z" />
<glyph unicode="&#x160;" horiz-adv-x="901" d="M76 350h92q9 -136 82.5 -210t198.5 -74q130 0 202 75.5t72 198.5q0 72 -35 133t-90.5 105.5t-123 87t-134.5 86.5t-122.5 93.5t-90.5 120t-35 154.5q0 147 98.5 242.5t253.5 95.5q157 0 253.5 -100t105.5 -266h-94q-9 135 -78 205.5t-182 70.5q-120 0 -191.5 -67.5 t-71.5 -180.5q0 -71 35 -130.5t90.5 -103.5t123 -85.5t134.5 -85.5t122.5 -94.5t90.5 -122.5t35 -158q0 -98 -41.5 -180t-126 -133.5t-198.5 -51.5q-167 0 -267 102.5t-108 272.5zM238 1800h84l127 -158l126 158h84l-161 -223h-99z" />
<glyph unicode="&#x161;" horiz-adv-x="808" d="M74 303h88q3 -117 68.5 -178.5t183.5 -61.5q101 0 164 53t63 144q0 46 -19 83t-51 62.5t-73.5 47t-88 41t-92.5 39.5t-87.5 46t-73.5 58t-51 78.5t-19 103.5q0 123 85.5 199t221.5 76q142 0 228.5 -82.5t89.5 -220.5h-88q-3 104 -63.5 161.5t-166.5 57.5q-99 0 -158 -52 t-59 -141q0 -56 30.5 -98t79.5 -69t108.5 -51.5t118.5 -52.5t108 -63t79.5 -92.5t30.5 -132.5q0 -125 -89.5 -203t-227.5 -78q-153 0 -245 87.5t-95 238.5zM188 1464h84l127 -157l127 157h84l-161 -223h-99z" />
<glyph unicode="&#x162;" horiz-adv-x="821" d="M43 1346v88h735v-88h-323v-1346h-93v1346h-319zM330 -483l35 346h106l-70 -346h-71z" />
<glyph unicode="&#x163;" horiz-adv-x="589" d="M43 989v82h158v250h88v-250h231v-82h-231v-694q0 -219 200 -219h52v-84h-52q-141 0 -214.5 77.5t-73.5 225.5v694h-158zM262 -483l35 346h106l-69 -346h-72z" />
<glyph unicode="&#x164;" horiz-adv-x="821" d="M43 1346v88h735v-88h-323v-1346h-93v1346h-319zM195 1800h84l127 -158l126 158h84l-161 -223h-99z" />
<glyph unicode="&#x165;" horiz-adv-x="598" d="M43 989v82h158v250h88v-250h231v-82h-231v-694q0 -219 200 -219h52v-84h-52q-141 0 -214.5 77.5t-73.5 225.5v694h-158zM406 1225l24 323h100l-59 -323h-65z" />
<glyph unicode="&#x166;" horiz-adv-x="821" d="M43 1346v88h735v-88h-321v-566h178v-71h-178v-709h-92v709h-177v71h177v566h-322z" />
<glyph unicode="&#x167;" horiz-adv-x="589" d="M43 989v82h158v250h88v-250h231v-82h-231v-344h178v-72h-178v-278q0 -219 200 -219h52v-84h-52q-141 0 -214.5 77.5t-73.5 225.5v278h-129v72h129v344h-158z" />
<glyph unicode="&#x16a;" horiz-adv-x="1032" d="M141 406v1028h95v-1028q0 -166 75 -251t205 -85t205.5 85t75.5 251v1028h94v-1028q0 -204 -101.5 -314t-273.5 -110t-273.5 110t-101.5 314zM338 1642v80h358v-80h-358z" />
<glyph unicode="&#x16b;" horiz-adv-x="927" d="M129 379v692h88v-680q0 -330 211 -330q120 0 194 97t74 260v653h88v-1071h-75l-13 139v19q-44 -86 -117.5 -133.5t-170.5 -47.5q-132 0 -205.5 99.5t-73.5 302.5zM276 1294v76h359v-76h-359z" />
<glyph unicode="&#x16e;" horiz-adv-x="1032" d="M141 406v1028h95v-1028q0 -166 75 -251t205 -85t205.5 85t75.5 251v1028h94v-1028q0 -204 -101.5 -314t-273.5 -110t-273.5 110t-101.5 314zM383 1712q0 58 36.5 93.5t96.5 35.5q61 0 98 -35t37 -94q0 -62 -36.5 -98.5t-98.5 -36.5q-60 0 -96.5 37t-36.5 98zM444 1710 q0 -34 20 -54t52 -20t52 20t20 54q0 31 -20 51.5t-52 20.5t-52 -20.5t-20 -51.5z" />
<glyph unicode="&#x16f;" horiz-adv-x="927" d="M129 379v692h88v-680q0 -330 211 -330q120 0 194 97t74 260v653h88v-1071h-75l-13 139v19q-44 -86 -117.5 -133.5t-170.5 -47.5q-132 0 -205.5 99.5t-73.5 302.5zM322 1362q0 58 36.5 93.5t96.5 35.5q61 0 98 -35t37 -94q0 -62 -37 -98.5t-98 -36.5q-60 0 -96.5 37 t-36.5 98zM383 1360q0 -34 20 -54t52 -20t51.5 20t19.5 54q0 31 -19.5 51.5t-51.5 20.5t-52 -20.5t-20 -51.5z" />
<glyph unicode="&#x170;" horiz-adv-x="1032" d="M141 406v1028h95v-1028q0 -166 75 -251t205 -85t205.5 85t75.5 251v1028h94v-1028q0 -204 -101.5 -314t-273.5 -110t-273.5 110t-101.5 314zM346 1577l146 225h104l-168 -225h-82zM539 1577l153 225h103l-174 -225h-82z" />
<glyph unicode="&#x171;" horiz-adv-x="927" d="M129 379v692h88v-680q0 -330 211 -330q120 0 194 97t74 260v653h88v-1071h-75l-13 139v19q-44 -86 -117.5 -133.5t-170.5 -47.5q-132 0 -205.5 99.5t-73.5 302.5zM281 1235l145 225h104l-168 -225h-81zM473 1235l154 225h102l-174 -225h-82z" />
<glyph unicode="&#x172;" horiz-adv-x="1024" d="M141 393v1041h95v-1041q0 -158 74 -240.5t202 -82.5t203.5 83t75.5 240v1041h92v-1041q0 -127 -37 -203.5t-103 -132.5q-178 -158 -178 -276q0 -46 26.5 -68t65.5 -22q36 0 60 6v-80q-33 -10 -74 -10q-80 0 -122 45.5t-42 111.5q0 122 144 242l-2 2q-50 -26 -107 -26 q-171 0 -272 107.5t-101 303.5z" />
<glyph unicode="&#x173;" horiz-adv-x="929" d="M129 379v692h88v-680q0 -330 211 -330q121 0 194.5 97.5t73.5 259.5v653h88v-1071q-66 -54 -104.5 -112.5t-38.5 -108.5q0 -43 26.5 -65.5t69.5 -22.5q25 0 49 6v-80q-30 -10 -67 -10q-80 0 -122 45.5t-42 109.5q0 124 154 238l-13 139v21q-42 -85 -116 -134t-170 -49 q-134 0 -207.5 99t-73.5 303z" />
<glyph unicode="&#x174;" horiz-adv-x="1413" d="M27 1434h98l199 -971q56 -276 65 -328h4l68 340l194 936h103l192 -924q48 -245 70 -352h4q8 42 34 169.5t34 168.5l196 961h98l-313 -1434h-104l-195 885q-32 134 -65 387h-4q-32 -244 -66 -387l-195 -885h-104zM494 1577l161 223h99l161 -223h-84l-126 158l-127 -158 h-84z" />
<glyph unicode="&#x175;" horiz-adv-x="1224" d="M27 1071h94l158 -680q14 -55 37 -165.5t24 -116.5h2q47 226 66 307l157 635h94l158 -635q19 -81 66 -307h2q1 6 24 116.5t37 165.5l158 680h94l-266 -1071h-98l-164 657q-33 131 -58 271h-2q-17 -124 -55 -271l-166 -657h-96zM397 1235l162 223h98l162 -223h-84l-127 158 l-127 -158h-84z" />
<glyph unicode="&#x176;" horiz-adv-x="845" d="M14 1434h101l229 -592q12 -35 80 -205q38 102 78 207l229 590h100l-362 -908v-526h-92v526zM209 1577l162 223h98l162 -223h-84l-127 158l-127 -158h-84z" />
<glyph unicode="&#x177;" horiz-adv-x="778" d="M27 1071h96l283 -831l251 831h95l-373 -1221q-34 -113 -86 -173t-141 -60h-64v88h53q58 0 92 41t60 121l74 242zM172 1241l162 223h98l162 -223h-84l-127 158l-127 -158h-84z" />
<glyph unicode="&#x178;" horiz-adv-x="845" d="M14 1434h101l229 -592q12 -35 80 -205q38 102 78 207l229 590h100l-362 -908v-526h-92v526zM227 1700q0 30 19.5 48.5t50.5 18.5t49.5 -18t18.5 -49q0 -32 -18.5 -50t-49.5 -18t-50.5 18t-19.5 50zM477 1700q0 30 19.5 48.5t50.5 18.5q32 0 50.5 -18t18.5 -49 q0 -32 -18.5 -50t-50.5 -18q-31 0 -50.5 18t-19.5 50z" />
<glyph unicode="&#x179;" horiz-adv-x="821" d="M45 0v72l588 1274h-563v88h675v-64l-591 -1282h600v-88h-709zM307 1577l185 223h110l-205 -223h-90z" />
<glyph unicode="&#x17a;" horiz-adv-x="712" d="M37 0v74l500 915h-471v82h577v-72l-500 -917h512v-82h-618zM258 1241l154 225h106l-172 -225h-88z" />
<glyph unicode="&#x17b;" horiz-adv-x="821" d="M45 0v72l588 1274h-563v88h675v-64l-591 -1282h600v-88h-709zM315 1716q0 35 21.5 57.5t56.5 22.5q36 0 58 -22t22 -58q0 -37 -21.5 -58.5t-58.5 -21.5q-35 0 -56.5 21.5t-21.5 58.5z" />
<glyph unicode="&#x17c;" horiz-adv-x="712" d="M37 0v74l500 915h-471v82h577v-72l-500 -917h512v-82h-618zM276 1354q0 35 21.5 57.5t56.5 22.5q36 0 58 -22t22 -58q0 -37 -21.5 -58.5t-58.5 -21.5q-35 0 -56.5 21.5t-21.5 58.5z" />
<glyph unicode="&#x17d;" horiz-adv-x="821" d="M45 0v72l588 1274h-563v88h675v-64l-591 -1282h600v-88h-709zM182 1800h84l127 -158l127 158h84l-162 -223h-98z" />
<glyph unicode="&#x17e;" horiz-adv-x="712" d="M37 0v74l500 915h-471v82h577v-72l-500 -917h512v-82h-618zM145 1464h84l127 -157l127 157h84l-161 -223h-99z" />
<glyph unicode="&#x218;" horiz-adv-x="901" d="M76 350h92q9 -136 82.5 -210t198.5 -74q130 0 202 75.5t72 198.5q0 72 -35 133t-90.5 105.5t-123 87t-134.5 86.5t-122.5 93.5t-90.5 120t-35 154.5q0 147 98.5 242.5t253.5 95.5q157 0 253.5 -100t105.5 -266h-94q-9 135 -78 205.5t-182 70.5q-120 0 -191.5 -67.5 t-71.5 -180.5q0 -71 35 -130.5t90.5 -103.5t123 -85.5t134.5 -85.5t122.5 -94.5t90.5 -122.5t35 -158q0 -98 -41.5 -180t-126 -133.5t-198.5 -51.5q-167 0 -267 102.5t-108 272.5zM393 -483l35 346h107l-70 -346h-72z" />
<glyph unicode="&#x219;" horiz-adv-x="808" d="M74 303h88q3 -117 68.5 -178.5t183.5 -61.5q101 0 164 53t63 144q0 46 -19 83t-51 62.5t-73.5 47t-88 41t-92.5 39.5t-87.5 46t-73.5 58t-51 78.5t-19 103.5q0 123 85.5 199t221.5 76q142 0 228.5 -82.5t89.5 -220.5h-88q-3 104 -63.5 161.5t-166.5 57.5q-99 0 -158 -52 t-59 -141q0 -56 30.5 -98t79.5 -69t108.5 -51.5t118.5 -52.5t108 -63t79.5 -92.5t30.5 -132.5q0 -125 -89.5 -203t-227.5 -78q-153 0 -245 87.5t-95 238.5zM340 -483l35 346h106l-69 -346h-72z" />
<glyph unicode="&#x21a;" horiz-adv-x="821" d="M43 1346v88h735v-88h-323v-1346h-93v1346h-319zM330 -483l35 346h106l-70 -346h-71z" />
<glyph unicode="&#x21b;" horiz-adv-x="589" d="M43 989v82h158v250h88v-250h231v-82h-231v-694q0 -219 200 -219h52v-84h-52q-141 0 -214.5 77.5t-73.5 225.5v694h-158zM262 -483l35 346h106l-69 -346h-72z" />
<glyph unicode="&#x300;" d="M-260 1466h106l154 -225h-88z" />
<glyph unicode="&#x301;" d="M-260 1241l154 225h106l-172 -225h-88z" />
<glyph unicode="&#x302;" d="M-422 1241l162 223h98l162 -223h-84l-127 158l-127 -158h-84z" />
<glyph unicode="&#x303;" d="M-430 1282q3 69 37.5 110.5t91.5 41.5q37 0 67 -20.5t54 -41t45 -20.5q51 0 57 75h78q-6 -70 -40 -110.5t-89 -40.5q-36 0 -65.5 20.5t-54 41t-46.5 20.5q-47 0 -53 -76h-82z" />
<glyph unicode="&#x304;" d="M-358 1300v76h358v-76h-358z" />
<glyph unicode="&#x306;" d="M-442 1466h80q6 -149 137 -149q133 0 139 149h80q-3 -106 -61 -166.5t-158 -60.5q-98 0 -156 60.5t-61 166.5z" />
<glyph unicode="&#x307;" d="M-260 1354q0 35 21.5 57.5t56.5 22.5q36 0 58 -22t22 -58q0 -37 -21.5 -58.5t-58.5 -21.5q-35 0 -56.5 21.5t-21.5 58.5z" />
<glyph unicode="&#x308;" d="M-365 1348q0 31 19 49t51 18q31 0 49.5 -18t18.5 -49q0 -32 -18.5 -50t-49.5 -18q-32 0 -51 18t-19 50zM-139 1348q0 31 19.5 49t51.5 18q31 0 49.5 -18t18.5 -49q0 -32 -18.5 -50t-49.5 -18q-33 0 -52 18t-19 50z" />
<glyph unicode="&#x30a;" d="M-291 1368q0 58 36.5 93.5t96.5 35.5q61 0 98 -35t37 -94q0 -62 -36.5 -98.5t-98.5 -36.5q-60 0 -96.5 37t-36.5 98zM-229 1366q0 -34 19.5 -54t51.5 -20t52 20t20 54q0 31 -20 51.5t-52 20.5t-51.5 -20.5t-19.5 -51.5z" />
<glyph unicode="&#x30b;" d="M-446 1241l145 225h104l-168 -225h-81zM-254 1241l154 225h102l-174 -225h-82z" />
<glyph unicode="&#x30c;" d="M-428 1464h84l127 -157l127 157h84l-162 -223h-98z" />
<glyph unicode="&#x312;" d="M-143 1589h67l76 -344h-109z" />
<glyph unicode="&#x326;" d="M-152 -483l35 346h107l-70 -346h-72z" />
<glyph unicode="&#x327;" d="M-373 -250h76q6 -35 33 -55.5t67 -20.5q45 0 73 22.5t28 61.5t-23.5 61.5t-62.5 22.5q-48 0 -70 -16l-29 27l48 147h65l-33 -109q25 5 37 5q61 0 102.5 -39.5t41.5 -98.5q0 -71 -49.5 -112t-129.5 -41q-72 0 -120.5 41t-53.5 104z" />
<glyph unicode="&#x328;" d="M-240 -238q0 123 138 238h82q-61 -53 -97.5 -113t-36.5 -110q0 -42 27.5 -64t67.5 -22q32 0 59 6v-80q-33 -10 -74 -10q-80 0 -123 45t-43 110z" />
<glyph unicode="&#x335;" d="M-430 762v72h410v-72h-410z" />
<glyph unicode="&#x336;" d="M-676 762v72h656v-72h-656z" />
<glyph unicode="&#x337;" d="M-461 -88l332 1208h88l-332 -1208h-88z" />
<glyph unicode="&#x338;" d="M-664 -74l441 1579h88l-443 -1579h-86z" />
<glyph unicode="&#x401;" horiz-adv-x="913" d="M166 0v1434h649v-86h-557v-576h518v-86h-518v-600h571v-86h-663zM293 1700q0 31 19 49t50 18t49.5 -18t18.5 -49q0 -32 -18.5 -50t-49.5 -18t-50 18t-19 50zM543 1700q0 31 19 49t50 18q32 0 51 -18t19 -49q0 -32 -19 -50t-51 -18q-31 0 -50 18t-19 50z" />
<glyph unicode="&#x402;" horiz-adv-x="1122" d="M43 1346v88h705v-88h-308v-441q42 86 116 134t171 48q279 0 279 -423v-342q0 -159 -82 -248t-244 -90v84q125 4 181.5 67.5t56.5 186.5v335q0 178 -52 262.5t-157 84.5q-120 0 -194.5 -97t-74.5 -260v-647h-92v1346h-305z" />
<glyph unicode="&#x403;" horiz-adv-x="831" d="M166 0v1434h622v-88h-530v-1346h-92zM367 1577l184 223h111l-205 -223h-90z" />
<glyph unicode="&#x404;" horiz-adv-x="970" d="M127 401v631q0 205 100.5 315.5t270.5 110.5q173 0 273 -103t112 -298h-90q-24 317 -295 317q-130 0 -205.5 -86.5t-75.5 -255.5v-256h455v-88h-455v-287q0 -168 76.5 -255t208.5 -87q274 0 301 318h90q-13 -195 -114.5 -298.5t-276.5 -103.5q-171 0 -273 110.5 t-102 315.5z" />
<glyph unicode="&#x405;" horiz-adv-x="901" d="M76 350h92q9 -136 82.5 -210t198.5 -74q130 0 202 75.5t72 198.5q0 72 -35 133t-90.5 105.5t-123 87t-134.5 86.5t-122.5 93.5t-90.5 120t-35 154.5q0 147 98.5 242.5t253.5 95.5q157 0 253.5 -100t105.5 -266h-94q-9 135 -78 205.5t-182 70.5q-120 0 -191.5 -67.5 t-71.5 -180.5q0 -71 35 -130.5t90.5 -103.5t123 -85.5t134.5 -85.5t122.5 -94.5t90.5 -122.5t35 -158q0 -98 -41.5 -180t-126 -133.5t-198.5 -51.5q-167 0 -267 102.5t-108 272.5z" />
<glyph unicode="&#x406;" horiz-adv-x="423" d="M166 0v1434h92v-1434h-92z" />
<glyph unicode="&#x407;" horiz-adv-x="423" d="M20 1700q0 30 19.5 48.5t50.5 18.5t49.5 -18t18.5 -49q0 -32 -18.5 -50t-49.5 -18t-50.5 18t-19.5 50zM166 0v1434h92v-1434h-92zM270 1700q0 30 19.5 48.5t50.5 18.5q32 0 51 -18t19 -49q0 -32 -19 -50t-51 -18q-31 0 -50.5 18t-19.5 50z" />
<glyph unicode="&#x408;" horiz-adv-x="475" d="M-8 -66q118 0 174.5 66.5t56.5 208.5v1225h92v-1225q0 -180 -81.5 -271.5t-241.5 -91.5v88z" />
<glyph unicode="&#x409;" horiz-adv-x="1474" d="M8 -16v88q45 0 78.5 36.5t49.5 83t24 103.5q26 183 65 1139h566v-609h229q192 0 299.5 -107.5t107.5 -301.5q0 -198 -107.5 -307t-299.5 -109h-322v1346h-385q-36 -884 -63 -1063q-9 -59 -27 -109.5t-46 -94.5t-71.5 -69.5t-97.5 -25.5zM791 88h229q152 0 232.5 84 t80.5 244q0 157 -80.5 238t-232.5 81h-229v-647z" />
<glyph unicode="&#x40a;" horiz-adv-x="1574" d="M166 0v1434h92v-635h543v635h92v-633h229q191 0 298.5 -103t107.5 -290q0 -193 -107.5 -300.5t-298.5 -107.5h-321v713h-543v-713h-92zM893 88h229q150 0 231 82t81 238q0 150 -81 227.5t-231 77.5h-229v-625z" />
<glyph unicode="&#x40b;" horiz-adv-x="1132" d="M43 1346v88h705v-88h-308v-439q42 85 115.5 132.5t169.5 47.5q279 0 279 -423v-664h-89v657q0 178 -51.5 262.5t-156.5 84.5q-120 0 -193.5 -97t-73.5 -260v-647h-92v1346h-305z" />
<glyph unicode="&#x40c;" horiz-adv-x="968" d="M166 0v1434h92v-719l90 127l436 592h115l-461 -623l516 -811h-110l-465 731l-121 -160v-571h-92zM381 1577l184 223h111l-205 -223h-90z" />
<glyph unicode="&#x40d;" horiz-adv-x="1091" d="M166 0v1434h92v-1031q0 -156 -2 -215l2 -2q2 5 36 82t54 119l475 1047h103v-1434h-92v1038v209h-3l-71 -168l-494 -1079h-100zM328 1800h110l185 -223h-91z" />
<glyph unicode="&#x40e;" horiz-adv-x="811" d="M20 1434h101l317 -838l260 838h97l-377 -1201q-33 -107 -100 -178t-175 -71h-49v88h47q74 0 121.5 55t71.5 135l61 199zM199 1800h80q6 -149 137 -149q133 0 139 149h80q-3 -106 -61 -166.5t-158 -60.5q-98 0 -156 60.5t-61 166.5z" />
<glyph unicode="&#x40f;" horiz-adv-x="1067" d="M166 0v1434h92v-1346h551v1346h92v-1434h-321v-236h-91v236h-323z" />
<glyph unicode="&#x410;" horiz-adv-x="915" d="M27 0l379 1434h104l379 -1434h-98l-95 367h-477l-94 -367h-98zM242 453h432l-150 587q-15 58 -38.5 159t-26.5 114h-2q-5 -20 -17.5 -73.5t-25 -105t-23.5 -94.5z" />
<glyph unicode="&#x411;" horiz-adv-x="987" d="M166 0v1434h668v-88h-576v-506h252q178 0 288.5 -110t110.5 -306q0 -198 -111 -311t-288 -113h-344zM258 88h252q137 0 221 87t84 249q0 160 -84 245t-221 85h-252v-666z" />
<glyph unicode="&#x412;" horiz-adv-x="993" d="M166 0v1434h315q175 0 273 -96.5t98 -270.5q0 -128 -51.5 -212.5t-151.5 -111.5q128 -27 195 -120t67 -234q0 -187 -106.5 -288t-296.5 -101h-342zM258 88h250q309 0 309 301q0 140 -84.5 222.5t-236.5 82.5h-238v-606zM258 782h234q133 0 199.5 76t66.5 209 q0 279 -277 279h-223v-564z" />
<glyph unicode="&#x413;" horiz-adv-x="831" d="M166 0v1434h622v-88h-530v-1346h-92z" />
<glyph unicode="&#x414;" horiz-adv-x="1056" d="M18 86h86q63 66 106.5 227.5t49.5 354.5l25 766h579v-1348h123v-317h-92v231h-786v-231h-91v317zM219 86h551v1260h-395l-25 -697q-7 -182 -42 -329t-89 -234z" />
<glyph unicode="&#x415;" horiz-adv-x="913" d="M166 0v1434h649v-86h-557v-576h518v-86h-518v-600h571v-86h-663z" />
<glyph unicode="&#x416;" horiz-adv-x="1425" d="M16 0l502 788l-467 646h109l508 -709v709h90v-709l508 709h108l-467 -646l502 -788h-109l-450 709l-92 -125v-584h-90v584l-90 125l-453 -709h-109z" />
<glyph unicode="&#x417;" horiz-adv-x="970" d="M78 375h94q12 -146 93 -227.5t214 -81.5q136 0 217.5 83.5t81.5 229.5q0 153 -87 234t-234 81h-125v88h125q136 0 214.5 75t78.5 220q0 139 -72.5 215t-200.5 76q-131 0 -203 -80t-81 -229h-95q11 188 110 293.5t271 105.5q167 0 265 -101t98 -286q0 -266 -234 -332 q133 -32 198.5 -124t65.5 -234q0 -189 -106.5 -297.5t-282.5 -108.5q-178 0 -286 108t-119 292z" />
<glyph unicode="&#x418;" horiz-adv-x="1091" d="M166 0v1434h92v-1031q0 -156 -2 -215l2 -2q2 5 36 82t54 119l475 1047h103v-1434h-92v1038v209h-3l-71 -168l-494 -1079h-100z" />
<glyph unicode="&#x419;" horiz-adv-x="1091" d="M166 0v1434h92v-1031q0 -156 -2 -215l2 -2q2 5 36 82t54 119l475 1047h103v-1434h-92v1038v209h-3l-71 -168l-494 -1079h-100zM330 1800h80q6 -149 137 -149q133 0 139 149h80q-3 -106 -61 -166.5t-158 -60.5q-98 0 -156 60.5t-61 166.5z" />
<glyph unicode="&#x41a;" horiz-adv-x="968" d="M166 0v1434h92v-719l90 127l436 592h115l-461 -623l516 -811h-110l-465 731l-121 -160v-571h-92z" />
<glyph unicode="&#x41b;" horiz-adv-x="983" d="M8 -16v88q36 0 65.5 20.5t47.5 54.5t29 70.5t16 77.5q28 203 67 1139h584v-1434h-94v1346h-399q-39 -866 -68 -1063q-7 -58 -25 -109.5t-47.5 -95t-75 -69t-100.5 -25.5z" />
<glyph unicode="&#x41c;" horiz-adv-x="1306" d="M166 2v1432h98l291 -705q18 -43 52.5 -138t43.5 -118h4q66 184 97 256l290 705h99v-1432h-94v924q0 113 8 305l-4 2q-38 -98 -113 -281l-238 -594h-94l-239 594q-19 49 -57 144.5t-54 136.5l-4 -2q6 -144 6 -305v-924h-92z" />
<glyph unicode="&#x41d;" horiz-adv-x="1067" d="M166 0v1434h92v-660h551v660h94v-1434h-94v686h-551v-686h-92z" />
<glyph unicode="&#x41e;" horiz-adv-x="1048" d="M127 424v584q0 214 105.5 332t291.5 118q187 0 293.5 -118t106.5 -332v-584q0 -211 -106.5 -330t-293.5 -119q-185 0 -291 119t-106 330zM221 424q0 -174 78.5 -266t224.5 -92q147 0 226 92t79 266v584q0 176 -79 268t-226 92q-146 0 -224.5 -92t-78.5 -268v-584z" />
<glyph unicode="&#x41f;" horiz-adv-x="1067" d="M166 0v1434h737v-1434h-94v1346h-551v-1346h-92z" />
<glyph unicode="&#x420;" horiz-adv-x="970" d="M166 0v1434h323q193 0 297.5 -113.5t106.5 -319.5q0 -215 -105 -329.5t-299 -114.5h-231v-557h-92zM258 645h231q310 0 310 356q2 168 -77.5 256.5t-232.5 88.5h-231v-701z" />
<glyph unicode="&#x421;" horiz-adv-x="970" d="M127 401v631q0 205 100.5 315.5t270.5 110.5q173 0 273 -103t112 -298h-90q-24 317 -295 317q-130 0 -205.5 -86.5t-75.5 -255.5v-631q0 -168 76.5 -255t208.5 -87q274 0 301 318h90q-13 -195 -114.5 -298.5t-276.5 -103.5q-171 0 -273 110.5t-102 315.5z" />
<glyph unicode="&#x422;" horiz-adv-x="821" d="M43 1346v88h735v-88h-323v-1346h-93v1346h-319z" />
<glyph unicode="&#x423;" horiz-adv-x="811" d="M20 1434h101l317 -838l260 838h97l-377 -1201q-33 -107 -100 -178t-175 -71h-49v88h47q74 0 121.5 55t71.5 135l61 199z" />
<glyph unicode="&#x424;" horiz-adv-x="1320" d="M90 549v342q0 234 119 362.5t332 128.5h73v152h93v-152h71q214 0 333.5 -128.5t119.5 -362.5v-342q0 -234 -119.5 -364t-333.5 -130h-71v-164h-93v164h-73q-213 0 -332 130t-119 364zM184 549q0 -196 92.5 -300t264.5 -104h73v1147h-73q-173 0 -265 -102.5t-92 -298.5 v-342zM707 145h71q175 0 267 103.5t92 300.5v342q0 196 -92 298.5t-267 102.5h-71v-1147z" />
<glyph unicode="&#x425;" horiz-adv-x="886" d="M43 0l348 743l-332 691h105l280 -603l281 603h102l-329 -691l348 -743h-103l-299 653l-299 -653h-102z" />
<glyph unicode="&#x426;" horiz-adv-x="1093" d="M166 0v1434h92v-1346h545v1346h92v-1346h129v-324h-90v236h-768z" />
<glyph unicode="&#x427;" horiz-adv-x="991" d="M92 944v490h92v-490q0 -159 85 -242.5t225 -83.5q122 0 237 62v754h94v-1432h-94v588q-117 -60 -237 -60q-181 0 -291.5 108.5t-110.5 305.5z" />
<glyph unicode="&#x428;" horiz-adv-x="1605" d="M166 0v1434h92v-1346h498v1346h94v-1346h496v1346h94v-1434h-1274z" />
<glyph unicode="&#x429;" horiz-adv-x="1636" d="M166 0v1434h92v-1346h498v1346h94v-1346h496v1346h94v-1346h125v-324h-88v236h-1311z" />
<glyph unicode="&#x42a;" horiz-adv-x="1062" d="M41 1346v88h332v-600h229q194 0 303 -109t109 -305q0 -199 -109 -309.5t-303 -110.5h-321v1346h-240zM373 88h229q153 0 235.5 85t82.5 247q0 158 -82 240.5t-236 82.5h-229v-655z" />
<glyph unicode="&#x42b;" horiz-adv-x="1329" d="M166 0v1434h92v-609h225q193 0 300.5 -107.5t107.5 -301.5q0 -197 -107.5 -306.5t-300.5 -109.5h-317zM258 88h225q152 0 233 84t81 244q0 157 -81 238t-233 81h-225v-647zM1069 0v1434h94v-1434h-94z" />
<glyph unicode="&#x42c;" horiz-adv-x="954" d="M166 0v1434h92v-605h248q186 0 293.5 -108.5t107.5 -300.5q0 -198 -107.5 -309t-293.5 -111h-340zM258 88h248q147 0 227 85t80 247q0 158 -80 239.5t-227 81.5h-248v-653z" />
<glyph unicode="&#x42d;" horiz-adv-x="970" d="M78 377h90q27 -318 301 -318q132 0 208.5 87t76.5 255v287h-455v88h455v256q0 169 -75.5 255.5t-205.5 86.5q-271 0 -295 -317h-90q12 195 112 298t273 103q170 0 270.5 -110.5t100.5 -315.5v-631q0 -205 -102 -315.5t-273 -110.5q-175 0 -276.5 103.5t-114.5 298.5z" />
<glyph unicode="&#x42e;" horiz-adv-x="1449" d="M166 0v1434h92v-660h270v217q0 221 106 342t292 121t291.5 -121t105.5 -342v-549q0 -221 -105.5 -341.5t-291.5 -120.5t-292 120.5t-106 341.5v244h-270v-686h-92zM623 442q0 -184 78.5 -278t224.5 -94t224.5 94t78.5 278v549q0 184 -78.5 278.5t-224.5 94.5 t-224.5 -94.5t-78.5 -278.5v-549z" />
<glyph unicode="&#x42f;" horiz-adv-x="968" d="M66 0l364 586q-154 20 -242 130t-88 290q0 204 108 316t292 112h305v-1434h-94v582h-179l-358 -582h-108zM195 1010q0 -166 79.5 -254t223.5 -88h213v678h-211q-147 0 -226 -85t-79 -251z" />
<glyph unicode="&#x430;" horiz-adv-x="903" d="M90 303q0 151 94 233t267 82h221v136q0 123 -58.5 189.5t-167.5 66.5q-102 0 -166 -57t-67 -150h-90q8 131 95.5 211t230.5 80q146 0 228.5 -90t82.5 -248v-756h-78l-8 115q-37 -63 -104 -100.5t-160 -37.5q-144 0 -232 86.5t-88 239.5zM180 301q0 -113 65.5 -175.5 t176.5 -62.5q119 0 184.5 66.5t65.5 181.5v226h-223q-131 0 -200 -61t-69 -175z" />
<glyph unicode="&#x431;" horiz-adv-x="931" d="M143 344v623q0 313 334 407q81 21 125.5 49t77.5 90l72 -51q-18 -39 -44.5 -69t-61.5 -50.5t-67.5 -33.5t-76.5 -25q-46 -13 -80.5 -26.5t-72.5 -38.5t-62 -57t-40 -82t-16 -113v-109q39 81 111 122.5t166 41.5q143 0 225 -98.5t82 -276.5v-303q0 -170 -91 -267t-247 -97 q-154 0 -244 97t-90 267zM231 344q0 -134 65.5 -206t180.5 -72q118 0 183 72t65 206v289q0 151 -61 227t-172 76t-186 -76t-75 -227v-289z" />
<glyph unicode="&#x432;" horiz-adv-x="864" d="M143 0v1069h283q147 0 229 -73.5t82 -200.5q0 -67 -35.5 -126.5t-99.5 -97.5q86 -32 137.5 -104.5t51.5 -163.5q0 -145 -88.5 -224t-253.5 -79h-306zM231 84h215q125 0 189.5 56.5t64.5 162.5q0 101 -64.5 158t-182.5 57h-222v-434zM231 602h203q95 0 154 54t59 139 q0 89 -58 139.5t-165 50.5h-193v-383z" />
<glyph unicode="&#x433;" horiz-adv-x="684" d="M143 0v1071h510v-86h-422v-985h-88z" />
<glyph unicode="&#x434;" horiz-adv-x="901" d="M0 84h72q99 130 121 475q17 241 20 512h532v-987h115v-320h-86v236h-688v-236h-86v320zM176 84h479v903h-356q-3 -221 -18 -438q-24 -329 -105 -465z" />
<glyph unicode="&#x435;" horiz-adv-x="903" d="M117 342v389q0 169 89.5 266t242.5 97q155 0 246 -97t91 -266v-239h-581v-150q0 -132 64.5 -204t179.5 -72q239 0 264 256h90q-14 -162 -105.5 -252t-251.5 -90q-153 0 -241 97t-88 265zM205 573h493v158q0 133 -65.5 205t-183.5 72q-115 0 -179.5 -72t-64.5 -205v-158z " />
<glyph unicode="&#x436;" horiz-adv-x="1208" d="M12 0l402 604l-369 467h111l223 -291q31 -39 91 -117.5t91 -117.5v526h86v-526q31 39 91.5 117.5t90.5 117.5l224 291h110l-368 -467l401 -604h-106l-349 537l-94 -119v-418h-86v418l-94 119l-348 -537h-107z" />
<glyph unicode="&#x437;" horiz-adv-x="804" d="M51 295h88q6 -103 74 -166t182 -63q112 0 181 66t69 173q0 94 -68 152.5t-190 58.5h-154v84h148q107 0 167 55t60 144t-58.5 147t-158.5 58q-211 0 -227 -230h-88q6 148 87 230.5t228 82.5q133 0 219 -82.5t86 -201.5q0 -90 -44 -152t-115 -90q91 -25 144.5 -94.5 t53.5 -165.5q0 -139 -96 -230t-244 -91q-151 0 -244.5 88t-99.5 227z" />
<glyph unicode="&#x438;" horiz-adv-x="921" d="M143 0v1071h88v-690q0 -156 -4 -219l4 -2q13 34 78 166l379 745h92v-1071h-88v653q0 151 6 265l-4 2q-24 -60 -92 -197l-371 -723h-88z" />
<glyph unicode="&#x439;" horiz-adv-x="921" d="M143 0v1071h88v-690q0 -156 -4 -219l4 -2q13 34 78 166l379 745h92v-1071h-88v653q0 151 6 265l-4 2q-24 -60 -92 -197l-371 -723h-88zM246 1466h80q6 -149 137 -149q133 0 139 149h80q-3 -106 -61 -166.5t-158 -60.5q-98 0 -156 60.5t-61 166.5z" />
<glyph unicode="&#x43a;" horiz-adv-x="841" d="M143 0v1071h88v-528q118 141 158 192l277 336h114l-385 -463l434 -608h-108l-385 539l-105 -125v-414h-88z" />
<glyph unicode="&#x43b;" horiz-adv-x="874" d="M18 -12v86q40 0 68.5 24.5t46.5 73.5t28.5 106.5t16.5 137.5q22 274 27 655h528v-1071h-88v987h-352q-9 -369 -27 -586q-16 -203 -73.5 -308t-174.5 -105z" />
<glyph unicode="&#x43c;" horiz-adv-x="1095" d="M143 0v1071h93l256 -553l55 -129h2l55 129l256 553h92v-1071h-86v670q0 47 3 125t3 114l-2 2q-78 -190 -94 -227l-182 -391h-92l-183 391q-16 37 -94 227l-2 -2q0 -36 3 -114t3 -125v-670h-86z" />
<glyph unicode="&#x43d;" horiz-adv-x="907" d="M143 0v1071h88v-471h445v471h88v-1071h-88v516h-445v-516h-88z" />
<glyph unicode="&#x43e;" horiz-adv-x="913" d="M117 344v383q0 172 91 269.5t249 97.5q157 0 248.5 -97.5t91.5 -269.5v-383q0 -172 -91.5 -269.5t-248.5 -97.5q-158 0 -249 97.5t-91 269.5zM205 344q0 -135 67 -208t185 -73t184 73t66 208v383q0 135 -66 208t-184 73t-185 -73t-67 -208v-383z" />
<glyph unicode="&#x43f;" horiz-adv-x="907" d="M143 0v1071h621v-1071h-88v987h-445v-987h-88z" />
<glyph unicode="&#x440;" horiz-adv-x="927" d="M143 -369v1440h74l10 -129q40 72 110.5 112t158.5 40q139 0 227 -101t88 -278v-365q0 -175 -87.5 -274t-234.5 -99q-78 0 -148 37t-112 103v-486h-86zM229 342q0 -122 68.5 -202.5t173.5 -80.5q119 0 185.5 75t66.5 216v365q0 144 -66.5 220.5t-179.5 76.5 q-104 0 -176 -81.5t-72 -228.5v-360z" />
<glyph unicode="&#x441;" horiz-adv-x="872" d="M117 342v389q0 169 87.5 266t237.5 97q156 0 245.5 -97.5t92.5 -271.5h-90q-3 137 -67.5 210t-180.5 73q-111 0 -174 -72.5t-63 -204.5v-389q0 -132 63.5 -204t175.5 -72q118 0 182.5 72.5t67.5 211.5h90q-3 -174 -93.5 -272t-246.5 -98q-151 0 -239 97t-88 265z" />
<glyph unicode="&#x442;" horiz-adv-x="692" d="M33 989v82h626v-82h-270v-989h-88v989h-268z" />
<glyph unicode="&#x443;" horiz-adv-x="778" d="M27 1071h96l283 -831l251 831h95l-373 -1221q-34 -113 -86 -173t-141 -60h-64v88h53q58 0 92 41t60 121l74 242z" />
<glyph unicode="&#x444;" horiz-adv-x="1247" d="M117 387v291q0 190 106.5 298.5t278.5 108.5h78v373h88v-373h77q172 0 278.5 -108.5t106.5 -298.5v-291q0 -187 -106.5 -294t-278.5 -107h-77v-355h-88v355h-78q-172 0 -278.5 107t-106.5 294zM205 387q0 -150 81 -232.5t216 -82.5h78v927h-78q-136 0 -216.5 -83 t-80.5 -238v-291zM668 72h77q134 0 215.5 82.5t81.5 232.5v291q0 155 -80.5 238t-216.5 83h-77v-927z" />
<glyph unicode="&#x445;" horiz-adv-x="755" d="M18 0l310 539l-295 532h100l246 -448l246 448h98l-291 -532l305 -539h-104l-254 463l-256 -463h-105z" />
<glyph unicode="&#x446;" horiz-adv-x="925" d="M143 0v1071h88v-987h439v987h88v-987h116v-320h-88v236h-643z" />
<glyph unicode="&#x447;" horiz-adv-x="851" d="M72 756v315h88v-315q0 -144 65 -219.5t176 -75.5q136 0 220 57v553h88v-1071h-88v426q-94 -51 -228 -51q-144 0 -232.5 101t-88.5 280z" />
<glyph unicode="&#x448;" horiz-adv-x="1386" d="M129 0v1071h88v-987h424v987h90v-987h424v987h88v-1071h-1114z" />
<glyph unicode="&#x449;" horiz-adv-x="1419" d="M143 0v1071h88v-987h422v987h90v-987h422v987h90v-989h113v-318h-82v236h-1143z" />
<glyph unicode="&#x44a;" horiz-adv-x="917" d="M33 989v82h303v-389h209q146 0 242 -96t96 -244t-96 -245t-242 -97h-299v989h-213zM336 86h209q110 0 179 71t69 185q0 113 -69 183.5t-179 70.5h-209v-510z" />
<glyph unicode="&#x44b;" horiz-adv-x="1173" d="M143 0v1065h88v-397h209q146 0 242 -94.5t96 -239.5t-96 -239.5t-242 -94.5h-297zM231 86h209q110 0 180 69.5t70 178.5q0 110 -70 179t-180 69h-209v-496zM942 0v1065h90v-1065h-90z" />
<glyph unicode="&#x44c;" horiz-adv-x="813" d="M143 0v1071h88v-389h209q146 0 242 -96t96 -244t-96 -245t-242 -97h-297zM231 86h209q111 0 180.5 71t69.5 185q0 112 -70 183t-180 71h-209v-510z" />
<glyph unicode="&#x44d;" horiz-adv-x="872" d="M88 350h90q4 -139 68.5 -211.5t181.5 -72.5q112 0 176 72t64 204v162h-400v82h400v145q0 132 -63.5 204.5t-174.5 72.5q-115 0 -178 -72.5t-68 -210.5h-90q4 175 93 272t243 97q150 0 238 -97t88 -266v-389q0 -168 -88.5 -265t-239.5 -97q-155 0 -245.5 97.5t-94.5 272.5 z" />
<glyph unicode="&#x44e;" horiz-adv-x="1230" d="M143 0v1071h88v-475h218v133q0 171 89.5 268t243.5 97q153 0 242.5 -97t89.5 -268v-385q0 -169 -89.5 -266.5t-242.5 -97.5q-154 0 -243.5 97t-89.5 267v168h-218v-512h-88zM539 344q0 -134 63.5 -206t179.5 -72q115 0 178.5 72t63.5 206v385q0 134 -63.5 206.5 t-178.5 72.5q-116 0 -179.5 -72.5t-63.5 -206.5v-385z" />
<glyph unicode="&#x44f;" horiz-adv-x="808" d="M33 0l268 416q-104 19 -167.5 108t-63.5 217q0 146 89.5 238t237.5 92h283v-1071h-88v412h-195l-260 -412h-104zM158 741q0 -113 60 -180t165 -67h209v491h-195q-111 0 -175 -66.5t-64 -177.5z" />
<glyph unicode="&#x451;" horiz-adv-x="903" d="M117 342v389q0 169 89.5 266t242.5 97q155 0 246 -97t91 -266v-239h-581v-150q0 -132 64.5 -204t179.5 -72q239 0 264 256h90q-14 -162 -105.5 -252t-251.5 -90q-153 0 -241 97t-88 265zM205 573h493v158q0 133 -65.5 205t-183.5 72q-115 0 -179.5 -72t-64.5 -205v-158z M264 1348q0 31 19 49t51 18q31 0 49 -18t18 -49q0 -32 -18 -50t-49 -18q-32 0 -51 18t-19 50zM489 1348q0 31 20 49t52 18q31 0 49.5 -18t18.5 -49q0 -32 -18.5 -50t-49.5 -18q-33 0 -52.5 18t-19.5 50z" />
<glyph unicode="&#x452;" horiz-adv-x="948" d="M10 1262v71h152v148h90v-148h227v-71h-227v-353q42 87 116.5 136t172.5 49q278 0 278 -426v-736q0 -159 -81.5 -248t-243.5 -90v84q125 4 181 67.5t56 186.5v730q0 179 -52.5 263.5t-158.5 84.5q-120 0 -194 -97.5t-74 -261.5v-651h-90v1262h-152z" />
<glyph unicode="&#x453;" horiz-adv-x="684" d="M143 0v1071h510v-86h-422v-985h-88zM281 1241l153 225h107l-172 -225h-88z" />
<glyph unicode="&#x454;" horiz-adv-x="872" d="M117 342v389q0 169 87.5 266t237.5 97q154 0 243 -97t93 -272h-90q-5 138 -68 210.5t-178 72.5q-111 0 -174 -72.5t-63 -204.5v-145h399v-82h-399v-162q0 -132 63.5 -204t175.5 -72q117 0 181.5 72.5t68.5 211.5h90q-4 -175 -94.5 -272.5t-245.5 -97.5q-151 0 -239 97 t-88 265z" />
<glyph unicode="&#x455;" horiz-adv-x="808" d="M74 303h88q3 -117 68.5 -178.5t183.5 -61.5q101 0 164 53t63 144q0 46 -19 83t-51 62.5t-73.5 47t-88 41t-92.5 39.5t-87.5 46t-73.5 58t-51 78.5t-19 103.5q0 123 85.5 199t221.5 76q142 0 228.5 -82.5t89.5 -220.5h-88q-3 104 -63.5 161.5t-166.5 57.5q-99 0 -158 -52 t-59 -141q0 -56 30.5 -98t79.5 -69t108.5 -51.5t118.5 -52.5t108 -63t79.5 -92.5t30.5 -132.5q0 -125 -89.5 -203t-227.5 -78q-153 0 -245 87.5t-95 238.5z" />
<glyph unicode="&#x456;" horiz-adv-x="372" d="M109 1354q0 36 21 58t56 22q36 0 58 -22t22 -58q0 -37 -21.5 -58.5t-58.5 -21.5q-35 0 -56 21.5t-21 58.5zM143 0v1071h88v-1071h-88z" />
<glyph unicode="&#x457;" horiz-adv-x="409" d="M27 1354q0 30 18.5 47.5t48.5 17.5q31 0 49.5 -17.5t18.5 -47.5q0 -32 -18.5 -50t-49.5 -18q-30 0 -48.5 18t-18.5 50zM160 0v1071h88v-1071h-88zM246 1354q0 31 18.5 48t50.5 17q30 0 49 -17.5t19 -47.5q0 -32 -19 -50t-49 -18q-32 0 -50.5 18t-18.5 50z" />
<glyph unicode="&#x458;" horiz-adv-x="454" d="M-49 -305q125 4 181 70.5t56 193.5v1112h88v-1112q0 -163 -81 -255t-244 -93v84zM154 1352q0 37 21 58.5t56 21.5q37 0 58.5 -21.5t21.5 -58.5q0 -36 -22 -58t-58 -22q-35 0 -56 22t-21 58z" />
<glyph unicode="&#x459;" horiz-adv-x="1314" d="M18 -12v86q40 0 68.5 24.5t46.5 73.5t28.5 106.5t16.5 137.5q22 274 27 655h528v-403h209q147 0 243.5 -95t96.5 -239q0 -145 -96 -239.5t-244 -94.5h-297v987h-352q-9 -369 -27 -586q-9 -133 -35.5 -221.5t-79.5 -140t-133 -51.5zM733 86h209q110 0 180 69.5t70 178.5 q0 110 -70 179t-180 69h-209v-496z" />
<glyph unicode="&#x45a;" horiz-adv-x="1343" d="M143 0v1071h88v-442h443v442h88v-442h209q146 0 242 -87t96 -220q0 -139 -96 -230.5t-242 -91.5h-297v545h-443v-545h-88zM762 86h209q110 0 179 66t69 170q0 98 -69 160.5t-179 62.5h-209v-459z" />
<glyph unicode="&#x45b;" horiz-adv-x="933" d="M18 1257v72h129v152h89v-152h208v-72h-208v-348q42 87 116 136t172 49q281 0 281 -426v-668h-90v662q0 179 -52.5 263.5t-158.5 84.5q-120 0 -194 -97.5t-74 -261.5v-651h-89v1257h-129z" />
<glyph unicode="&#x45c;" horiz-adv-x="841" d="M143 0v1071h88v-528q118 141 158 192l277 336h114l-385 -463l434 -608h-108l-385 539l-105 -125v-414h-88zM315 1241l154 225h106l-172 -225h-88z" />
<glyph unicode="&#x45d;" horiz-adv-x="921" d="M143 0v1071h88v-690q0 -156 -4 -219l4 -2q13 34 78 166l379 745h92v-1071h-88v653q0 151 6 265l-4 2q-24 -60 -92 -197l-371 -723h-88zM291 1466h106l154 -225h-88z" />
<glyph unicode="&#x45e;" horiz-adv-x="778" d="M27 1071h96l283 -831l251 831h95l-373 -1221q-34 -113 -86 -173t-141 -60h-64v88h53q58 0 92 41t60 121l74 242zM166 1466h80q6 -149 137 -149q133 0 139 149h80q-3 -106 -61 -166.5t-158 -60.5q-98 0 -156 60.5t-61 166.5z" />
<glyph unicode="&#x45f;" horiz-adv-x="905" d="M143 0v1071h88v-987h443v987h90v-1071h-264v-236h-86v236h-271z" />
<glyph unicode="&#x490;" horiz-adv-x="821" d="M166 0v1434h524v194h86v-282h-518v-1346h-92z" />
<glyph unicode="&#x491;" horiz-adv-x="684" d="M143 0v1071h424v201h86v-287h-422v-985h-88z" />
<glyph unicode="&#x1e80;" horiz-adv-x="1413" d="M27 1434h98l199 -971q56 -276 65 -328h4l68 340l194 936h103l192 -924q48 -245 70 -352h4q8 42 34 169.5t34 168.5l196 961h98l-313 -1434h-104l-195 885q-32 134 -65 387h-4q-32 -244 -66 -387l-195 -885h-104zM487 1800h111l184 -223h-90z" />
<glyph unicode="&#x1e81;" horiz-adv-x="1224" d="M27 1071h94l158 -680q14 -55 37 -165.5t24 -116.5h2q47 226 66 307l157 635h94l158 -635q19 -81 66 -307h2q1 6 24 116.5t37 165.5l158 680h94l-266 -1071h-98l-164 657q-33 131 -58 271h-2q-17 -124 -55 -271l-166 -657h-96zM436 1460h107l153 -225h-88z" />
<glyph unicode="&#x1e82;" horiz-adv-x="1413" d="M27 1434h98l199 -971q56 -276 65 -328h4l68 340l194 936h103l192 -924q48 -245 70 -352h4q8 42 34 169.5t34 168.5l196 961h98l-313 -1434h-104l-195 885q-32 134 -65 387h-4q-32 -244 -66 -387l-195 -885h-104zM618 1577l185 223h110l-204 -223h-91z" />
<glyph unicode="&#x1e83;" horiz-adv-x="1224" d="M27 1071h94l158 -680q14 -55 37 -165.5t24 -116.5h2q47 226 66 307l157 635h94l158 -635q19 -81 66 -307h2q1 6 24 116.5t37 165.5l158 680h94l-266 -1071h-98l-164 657q-33 131 -58 271h-2q-17 -124 -55 -271l-166 -657h-96zM510 1235l154 225h106l-172 -225h-88z" />
<glyph unicode="&#x1e84;" horiz-adv-x="1413" d="M27 1434h98l199 -971q56 -276 65 -328h4l68 340l194 936h103l192 -924q48 -245 70 -352h4q8 42 34 169.5t34 168.5l196 961h98l-313 -1434h-104l-195 885q-32 134 -65 387h-4q-32 -244 -66 -387l-195 -885h-104zM512 1700q0 30 19.5 48.5t50.5 18.5t49 -18t18 -49 q0 -32 -18 -50t-49 -18t-50.5 18t-19.5 50zM762 1700q0 31 19 49t50 18q32 0 51 -18t19 -49q0 -32 -19 -50t-51 -18q-31 0 -50 18t-19 50z" />
<glyph unicode="&#x1e85;" horiz-adv-x="1224" d="M27 1071h94l158 -680q14 -55 37 -165.5t24 -116.5h2q47 226 66 307l157 635h94l158 -635q19 -81 66 -307h2q1 6 24 116.5t37 165.5l158 680h94l-266 -1071h-98l-164 657q-33 131 -58 271h-2q-17 -124 -55 -271l-166 -657h-96zM426 1348q0 31 19 49t51 18q31 0 49 -18 t18 -49q0 -32 -18 -50t-49 -18q-32 0 -51 18t-19 50zM651 1348q0 31 20 49t52 18q31 0 49.5 -18t18.5 -49q0 -32 -18.5 -50t-49.5 -18q-33 0 -52.5 18t-19.5 50z" />
<glyph unicode="&#x1ef2;" horiz-adv-x="845" d="M14 1434h101l229 -592q12 -35 80 -205q38 102 78 207l229 590h100l-362 -908v-526h-92v526zM203 1800h110l185 -223h-90z" />
<glyph unicode="&#x1ef3;" horiz-adv-x="778" d="M27 1071h96l283 -831l251 831h95l-373 -1221q-34 -113 -86 -173t-141 -60h-64v88h53q58 0 92 41t60 121l74 242zM211 1466h106l154 -225h-88z" />
<glyph unicode="&#x2000;" horiz-adv-x="961" />
<glyph unicode="&#x2001;" horiz-adv-x="1923" />
<glyph unicode="&#x2002;" horiz-adv-x="961" />
<glyph unicode="&#x2003;" horiz-adv-x="1923" />
<glyph unicode="&#x2004;" horiz-adv-x="641" />
<glyph unicode="&#x2005;" horiz-adv-x="480" />
<glyph unicode="&#x2006;" horiz-adv-x="320" />
<glyph unicode="&#x2007;" horiz-adv-x="320" />
<glyph unicode="&#x2008;" horiz-adv-x="240" />
<glyph unicode="&#x2009;" horiz-adv-x="384" />
<glyph unicode="&#x200a;" horiz-adv-x="106" />
<glyph unicode="&#x2010;" horiz-adv-x="681" d="M98 483v84h488v-84h-488z" />
<glyph unicode="&#x2011;" horiz-adv-x="681" d="M98 483v84h488v-84h-488z" />
<glyph unicode="&#x2012;" horiz-adv-x="681" d="M98 483v84h488v-84h-488z" />
<glyph unicode="&#x2013;" horiz-adv-x="886" d="M98 483v84h693v-84h-693z" />
<glyph unicode="&#x2014;" horiz-adv-x="1132" d="M98 483v84h938v-84h-938z" />
<glyph unicode="&#x2018;" horiz-adv-x="235" d="M47 1040l84 396h66l-41 -396h-109z" />
<glyph unicode="&#x2019;" horiz-adv-x="235" d="M39 1044l41 396h108l-84 -396h-65z" />
<glyph unicode="&#x201a;" horiz-adv-x="280" d="M66 -258l40 395h109l-84 -395h-65z" />
<glyph unicode="&#x201c;" horiz-adv-x="423" d="M47 1038l84 396h66l-41 -396h-109zM236 1038l83 396h66l-41 -396h-108z" />
<glyph unicode="&#x201d;" horiz-adv-x="423" d="M39 1038l41 396h108l-84 -396h-65zM227 1038l41 396h109l-84 -396h-66z" />
<glyph unicode="&#x201e;" horiz-adv-x="280" d="M66 -258l40 395h109l-84 -395h-65z" />
<glyph unicode="&#x2020;" horiz-adv-x="733" d="M66 965v84h256v407h90v-407h260v-84h-260v-1155h-90v1155h-256z" />
<glyph unicode="&#x2021;" horiz-adv-x="739" d="M70 254v84h258v627h-258v84h258v407h90v-407h258v-84h-258v-627h258v-84h-258v-444h-90v444h-258z" />
<glyph unicode="&#x2022;" horiz-adv-x="372" d="M70 514q0 52 31.5 84.5t82.5 32.5q52 0 84.5 -32.5t32.5 -84.5t-32.5 -84.5t-84.5 -32.5q-51 0 -82.5 32.5t-31.5 84.5z" />
<glyph unicode="&#x2026;" horiz-adv-x="980" d="M102 59q0 35 21 56.5t55 21.5q35 0 56.5 -21.5t21.5 -56.5t-21.5 -56t-56.5 -21q-34 0 -55 21t-21 56zM414 59q0 35 21.5 56.5t56.5 21.5q34 0 54.5 -21.5t20.5 -56.5t-20.5 -56t-54.5 -21q-35 0 -56.5 21t-21.5 56zM725 59q0 35 21.5 56.5t56.5 21.5t56.5 -21.5 t21.5 -56.5t-21.5 -56t-56.5 -21t-56.5 21t-21.5 56z" />
<glyph unicode="&#x202f;" horiz-adv-x="384" />
<glyph unicode="&#x2030;" horiz-adv-x="1728" d="M45 0l1010 1434h88l-1010 -1434h-88zM66 1010v237q0 93 50.5 148t131.5 55q84 0 134 -55t50 -148v-237q0 -92 -50 -146.5t-134 -54.5q-80 0 -131 55t-51 146zM139 1010q0 -62 29.5 -95.5t79.5 -33.5q51 0 79.5 33.5t28.5 95.5v237q0 64 -28 97.5t-80 33.5q-51 0 -80 -34 t-29 -97v-237zM760 184v238q0 92 51.5 147.5t132.5 55.5q83 0 133.5 -55t50.5 -148v-238q0 -93 -50.5 -146.5t-133.5 -53.5q-81 0 -132.5 54t-51.5 146zM836 184q0 -62 28.5 -95.5t79.5 -33.5q52 0 80.5 33.5t28.5 95.5v238q0 64 -28.5 97.5t-80.5 33.5t-80 -33.5t-28 -97.5 v-238zM1255 184v238q0 92 52 147.5t133 55.5q83 0 133.5 -55t50.5 -148v-238q0 -93 -50.5 -146.5t-133.5 -53.5q-81 0 -133 54t-52 146zM1331 184q0 -62 29.5 -95.5t79.5 -33.5q51 0 79.5 33.5t28.5 95.5v238q0 64 -28 97.5t-80 33.5q-51 0 -80 -34t-29 -97v-238z" />
<glyph unicode="&#x2039;" horiz-adv-x="546" d="M98 502v49l258 319h95l-279 -344l279 -344h-95z" />
<glyph unicode="&#x203a;" horiz-adv-x="546" d="M96 182l279 344l-279 344h94l259 -319v-49l-259 -320h-94z" />
<glyph unicode="&#x2044;" horiz-adv-x="1114" d="M33 0l950 1434h98l-952 -1434h-96z" />
<glyph unicode="&#x205f;" horiz-adv-x="480" />
<glyph unicode="&#x20ac;" horiz-adv-x="1099" d="M88 561v72h168v166h-168v71h168v162q0 205 100.5 315.5t270.5 110.5q173 0 273.5 -103t113.5 -298h-92q-24 317 -295 317q-130 0 -204.5 -86.5t-74.5 -255.5v-162h381v-71h-381v-166h381v-72h-381v-160q0 -168 76.5 -255t206.5 -87q273 0 303 318h90 q-13 -194 -115.5 -298t-277.5 -104q-170 0 -272.5 111t-102.5 315v160h-168z" />
<glyph unicode="&#x2122;" horiz-adv-x="948" d="M74 1378v56h299v-56h-121v-487h-57v487h-121zM436 891v543h64l98 -215q49 -120 51 -123q3 7 24 56.5t29 66.5l97 215h65v-543h-57v239q0 35 1 107t1 94l-2 2l-49 -114l-80 -183h-57l-78 183q-41 88 -51 114l-3 -2q0 -22 2.5 -94t2.5 -107v-239h-58z" />
<glyph unicode="&#x2202;" horiz-adv-x="901" d="M117 344v336q0 169 86 266.5t227 97.5q178 0 266 -131q-7 196 -113 322t-282 180l29 80q94 -24 174.5 -74t144 -124t99.5 -179.5t36 -230.5v-543q0 -170 -91.5 -267t-248.5 -97q-151 0 -239 97t-88 267zM205 344q0 -134 63.5 -206t177.5 -72q118 0 183 72t65 206v336 q0 134 -65 206t-180 72q-116 0 -180 -72t-64 -206v-336z" />
<glyph unicode="&#x2205;" horiz-adv-x="1665" d="M117 717q0 163 51.5 300t143.5 232t224.5 148t290.5 53q270 0 459 -147l172 202h90l-211 -250q203 -203 203 -538q0 -330 -196 -531.5t-517 -201.5q-265 0 -448 141l-168 -197h-92l207 244q-101 98 -155 237t-54 308zM190 717q0 -307 183 -490l866 1020 q-173 133 -412 133q-287 0 -462 -182.5t-175 -480.5zM426 182q160 -129 401 -129q288 0 463.5 183t175.5 481q0 302 -178 483z" />
<glyph unicode="&#x220f;" horiz-adv-x="1013" d="M166 -203v1637h682v-1637h-90v1549h-502v-1549h-90z" />
<glyph unicode="&#x2211;" horiz-adv-x="759" d="M90 -2v84l348 635l-348 635v84h580v-86h-486l336 -602v-62l-336 -602h486v-86h-580z" />
<glyph unicode="&#x2212;" horiz-adv-x="882" d="M100 590v84h682v-84h-682z" />
<glyph unicode="&#x221a;" horiz-adv-x="948" d="M43 938v84h244l207 -926l329 1534h90l-344 -1630h-153l-201 938h-172z" />
<glyph unicode="&#x221e;" horiz-adv-x="1300" d="M117 514q0 129 77.5 212t194.5 83q68 0 120.5 -27.5t82.5 -65t59 -95.5q45 90 103.5 139t156.5 49q117 0 196 -83t79 -212q0 -131 -78.5 -213t-194.5 -82q-102 0 -161.5 52.5t-100.5 146.5q-42 -94 -102.5 -146.5t-161.5 -52.5q-116 0 -193 82t-77 213zM203 514 q0 -96 50.5 -154.5t133.5 -58.5q26 0 48.5 6.5t40 16.5t34 27.5t28 33t24.5 41.5t21.5 44t20.5 48q-22 51 -37.5 81t-41 63.5t-59.5 49t-77 15.5q-85 0 -135.5 -57t-50.5 -156zM696 518q12 -30 20.5 -48t21.5 -44t24.5 -41.5t28 -33t34 -27.5t40 -16.5t48.5 -6.5 q83 0 134 59t51 154q0 99 -51 156t-136 57q-43 0 -77 -15.5t-59.5 -49t-41 -63.5t-37.5 -81z" />
<glyph unicode="&#x222b;" horiz-adv-x="626" d="M39 -301q119 4 174 63t55 172v1196q0 149 81.5 233t240.5 87v-86q-234 -6 -234 -234v-1196q0 -149 -80 -232.5t-237 -86.5v84z" />
<glyph unicode="&#x2248;" horiz-adv-x="915" d="M111 455q74 106 176 106q50 0 115.5 -26.5t126.5 -53t100 -26.5q71 0 129 88l49 -62q-71 -112 -174 -112q-50 0 -115 26.5t-126 53t-101 26.5q-74 0 -133 -88zM111 739q76 109 176 109q50 0 115.5 -27t126.5 -53.5t100 -26.5q74 0 129 88l49 -63q-72 -113 -174 -113 q-50 0 -115 26.5t-126 53.5t-101 27q-75 0 -133 -86z" />
<glyph unicode="&#x2260;" horiz-adv-x="915" d="M117 549v84h248l96 182h-344v84h387l84 160h84l-84 -160h211v-84h-254l-96 -182h350v-84h-396l-77 -150h-82l78 150h-205z" />
<glyph unicode="&#x2264;" horiz-adv-x="802" d="M100 178v82h602v-82h-602zM100 651v99l602 284v-90l-509 -244l509 -243v-90z" />
<glyph unicode="&#x2265;" horiz-adv-x="802" d="M100 178v82h602v-82h-602zM100 367v90l510 243l-510 244v90l602 -284v-99z" />
<glyph unicode="&#x25ca;" horiz-adv-x="933" d="M117 686v62l301 686h98l303 -686v-62l-303 -688h-98zM193 717l274 -639l274 639l-274 639z" />
<glyph unicode="&#x25fc;" horiz-adv-x="1075" d="M0 0v1075h1075v-1075h-1075z" />
<glyph horiz-adv-x="821" d="M43 1346v88h735v-88h-323v-1346h-15l-34 -111q17 7 38 7q58 0 99 -40t41 -102q0 -66 -49 -105.5t-125 -39.5q-71 0 -120 41t-52 102h73q6 -36 33.5 -56t69.5 -20q44 0 72 21.5t28 60.5t-24 61.5t-64 22.5q-42 0 -70 -14l-26 25l47 147h-15v1346h-319z" />
<glyph horiz-adv-x="372" d="M109 1354q0 36 21 58t56 22q36 0 58 -22t22 -58q0 -37 -21.5 -58.5t-58.5 -21.5q-35 0 -56 21.5t-21 58.5zM143 0v1071h88v-1071h-88z" />
<glyph horiz-adv-x="591" d="M43 989v82h158v250h88v-250h231v-82h-231v-694q0 -219 200 -219h52v-84h-52q-48 0 -96 10l-43 -113q18 7 41 7q57 0 97 -40t40 -102q0 -66 -49 -105.5t-125 -39.5q-71 0 -120 41t-52 102h74q6 -36 33 -56t69 -20q44 0 72.5 21.5t28.5 60.5t-24 61.5t-64 22.5 q-42 0 -70 -14l-27 25l62 172q-135 67 -135 270v694h-158z" />
<glyph horiz-adv-x="950" d="M8 88h82l334 1346h102l334 -1346h80v-319h-88v231h-754v-231h-90v319zM186 88h580l-191 799l-98 430h-4q-73 -337 -96 -430z" />
<glyph horiz-adv-x="897" d="M27 0l368 1434h109l368 -1434h-100l-242 977q-13 50 -38.5 162.5t-40.5 167.5h-5q-15 -58 -41.5 -171.5t-37.5 -158.5l-242 -977h-98z" />
<glyph horiz-adv-x="755" d="M18 0l310 539l-295 532h100l246 -448l246 448h98l-291 -532l305 -539h-104l-254 463l-256 -463h-105z" />
<glyph horiz-adv-x="907" d="M137 381v723q0 183 84.5 289t235.5 106q144 0 227.5 -97t83.5 -263q0 -134 -56 -224.5t-151 -126.5q256 -54 256 -378q0 -208 -98 -318t-260 -110q-153 0 -237.5 101.5t-84.5 297.5zM227 371q0 -152 59 -227.5t171 -75.5q127 0 198.5 83.5t71.5 251.5q0 177 -81 256 t-245 68l-174 -10v-346zM227 803l156 10q147 10 221 98t74 226q0 134 -57.5 206t-171.5 72q-105 0 -163.5 -82t-58.5 -229v-301z" />
<glyph horiz-adv-x="802" d="M78 258q0 64 23 116.5t61 86t86.5 63t98.5 50t98.5 46t86.5 50.5t61 63.5t23 85.5q0 88 -56.5 139.5t-149.5 51.5q-106 0 -164.5 -56t-59.5 -163h-88q1 137 87 220t225 83q134 0 216.5 -74t82.5 -197q0 -70 -29.5 -124t-77.5 -88.5t-105 -63t-114.5 -54.5t-105.5 -55.5 t-77.5 -74.5t-29.5 -103q0 -88 65.5 -141t163.5 -53q230 0 242 237h88q-6 -151 -94.5 -237t-235.5 -86q-142 0 -231.5 75.5t-89.5 202.5z" />
<glyph horiz-adv-x="927" d="M117 389v326q0 178 90.5 278.5t238.5 100.5q82 0 147.5 -37.5t106.5 -108.5l9 123h77v-1141q0 -149 -86 -236t-233 -87q-148 0 -237 81.5t-97 219.5h86q9 -104 72.5 -160.5t175.5 -56.5q108 0 168.5 62t60.5 177v222q-40 -60 -104.5 -93.5t-140.5 -33.5q-149 0 -241.5 98 t-92.5 266zM205 389q0 -133 70 -206.5t188 -73.5q106 0 169.5 72t63.5 198v360q0 125 -66.5 198t-166.5 73q-119 0 -188.5 -75.5t-69.5 -219.5v-326z" />
<glyph horiz-adv-x="1208" d="M12 0l408 614l-377 457h111l407 -504v910h86v-910l408 504h110l-377 -457l408 -614h-104l-359 547l-86 -107v-440h-86v440l-86 107l-358 -547h-105z" />
<glyph horiz-adv-x="849" d="M61 -16h91q17 -287 245 -287q124 0 193 81t69 232q0 158 -73.5 246t-206.5 88h-125v86h121q123 0 189.5 78t66.5 213q0 133 -63 210t-171 77q-104 0 -163 -71.5t-68 -209.5h-90q9 177 92 272t231 95q150 0 235 -98.5t85 -274.5q0 -129 -44.5 -211.5t-148.5 -116.5 q224 -69 224 -385q0 -192 -92.5 -295.5t-258.5 -103.5q-155 0 -241.5 94t-96.5 281z" />
<glyph horiz-adv-x="927" d="M129 379v692h88v-680q0 -330 211 -330q120 0 194 97t74 260v653h88v-1071h-75l-13 139v19q-44 -86 -117.5 -133.5t-170.5 -47.5q-132 0 -205.5 99.5t-73.5 302.5z" />
<glyph horiz-adv-x="927" d="M129 379v692h88v-680q0 -330 211 -330q120 0 194 97t74 260v653h88v-1071h-75l-13 139v19q-44 -86 -117.5 -133.5t-170.5 -47.5q-132 0 -205.5 99.5t-73.5 302.5zM244 1466h80q6 -149 137 -149q133 0 139 149h80q-3 -106 -61 -166.5t-158 -60.5q-98 0 -156 60.5 t-61 166.5z" />
<glyph horiz-adv-x="940" d="M141 379v692h88v-680q0 -330 211 -330q120 0 194.5 97t74.5 260v653h88v-1071h-76l-12 139v19q-44 -85 -118 -133t-171 -48q-132 0 -205.5 99.5t-73.5 302.5zM281 1466h106l154 -225h-88z" />
<glyph horiz-adv-x="847" d="M143 0v1481h88v-918l445 508h115l-392 -442l437 -629h-107l-391 559l-107 -117v-442h-88z" />
<glyph horiz-adv-x="761" d="M27 0l307 1071h96l305 -1071h-92l-184 666q-13 50 -40 152.5t-36 135.5h-4q-10 -39 -36.5 -142t-37.5 -146l-184 -666h-94z" />
<glyph horiz-adv-x="927" d="M143 0v1071h76l12 -139v-19q44 85 118 133t171 48q132 0 205.5 -99.5t73.5 -302.5v-692h-88v680q0 330 -211 330q-120 0 -194.5 -97t-74.5 -260v-653h-88z" />
<glyph horiz-adv-x="1454" d="M143 0v1071h76l12 -153v-5q41 85 112 133t163 48q194 0 252 -222q38 103 115.5 162.5t183.5 59.5q126 0 197 -103t71 -303v-688h-88v682q0 328 -199 328q-116 0 -188 -97t-72 -260v-653h-88v682q0 328 -203 328q-114 0 -185 -97t-71 -260v-653h-88z" />
<glyph horiz-adv-x="958" d="M129 379v692h88v-680q0 -167 51.5 -248.5t157.5 -81.5q119 0 193.5 97.5t74.5 259.5v653h90v-815q0 -88 28.5 -129.5t94.5 -50.5v-312h-84v240q-104 46 -121 168q-42 -92 -117 -143.5t-177 -51.5q-279 0 -279 402z" />
<glyph horiz-adv-x="1454" d="M129 383v688h88v-682q0 -328 199 -328q116 0 188 97t72 260v653h88v-682q0 -328 203 -328q114 0 185 97t71 260v653h88v-1071h-76l-12 154v4q-41 -85 -112 -133t-163 -48q-194 0 -252 222q-38 -103 -115.5 -162.5t-183.5 -59.5q-126 0 -197 103t-71 303z" />
<glyph horiz-adv-x="1480" d="M129 383v688h88v-682q0 -328 199 -328q116 0 187 97.5t71 259.5v653h88v-682q0 -328 199 -328q114 0 185 98t71 259v653h88v-815q0 -93 30 -134.5t95 -47.5v-310h-87v236q-97 43 -120 172q-39 -92 -111.5 -143.5t-169.5 -51.5q-90 0 -153.5 55t-92.5 163 q-38 -102 -114 -160t-183 -58q-127 0 -198.5 103t-71.5 303z" />
<glyph horiz-adv-x="821" d="M129 336v735h88v-477q39 63 106 98t146 37q138 2 227.5 -100.5t89.5 -270.5q0 -175 -91 -278t-238 -103q-146 0 -237 98.5t-91 260.5zM217 352q0 -136 65.5 -212.5t174.5 -76.5t175 78t66 217q0 133 -65.5 209t-175.5 76q-108 0 -174 -76.5t-66 -214.5z" />
<glyph horiz-adv-x="927" d="M23 989v82h303v-473q39 62 105 95.5t144 35.5q140 2 230 -100.5t90 -270.5q0 -174 -92.5 -277.5t-239.5 -103.5q-146 0 -236.5 98.5t-90.5 260.5v653h-213zM326 352q0 -136 64.5 -212.5t172.5 -76.5q110 0 176 78t66 217q0 133 -66 209t-176 76q-108 0 -172.5 -76.5 t-64.5 -214.5z" />
<glyph horiz-adv-x="1234" d="M147 0v1477h89v-881h217v127q0 171 89 267.5t244 96.5q153 0 242.5 -96.5t89.5 -267.5v-379q0 -169 -89.5 -266.5t-242.5 -97.5q-154 0 -243.5 97t-89.5 267v168h-217v-512h-89zM543 344q0 -134 63.5 -206t179.5 -72q115 0 179.5 72t64.5 206v379q0 134 -64.5 206 t-179.5 72q-116 0 -179.5 -72t-63.5 -206v-379z" />
<glyph horiz-adv-x="1132" d="M98 688v84h938v-84h-938z" />
<glyph horiz-adv-x="886" d="M98 688v84h693v-84h-693z" />
<glyph horiz-adv-x="681" d="M98 688v84h488v-84h-488z" />
<glyph horiz-adv-x="882" d="M98 625v49l258 319h95l-279 -344l279 -344h-95zM434 625v49l258 319h94l-278 -344l278 -344h-94z" />
<glyph horiz-adv-x="882" d="M96 305l279 344l-279 344h94l259 -319v-49l-259 -320h-94zM432 305l279 344l-279 344h94l258 -319v-49l-258 -320h-94z" />
<glyph horiz-adv-x="546" d="M98 625v49l258 319h95l-279 -344l279 -344h-95z" />
<glyph horiz-adv-x="546" d="M96 305l279 344l-279 344h94l259 -319v-49l-259 -320h-94z" />
<glyph d="M-377 1700q0 30 19.5 48.5t50.5 18.5t49 -18t18 -49q0 -32 -18 -50t-49 -18t-50.5 18t-19.5 50zM-127 1700q0 30 19.5 48.5t50.5 18.5q32 0 50.5 -18t18.5 -49q0 -32 -18.5 -50t-50.5 -18q-31 0 -50.5 18t-19.5 50z" />
<glyph d="M-150 1720q0 37 21.5 58.5t58.5 21.5q36 0 58 -22t22 -58q0 -35 -22.5 -57.5t-57.5 -22.5q-36 0 -58 22t-22 58z" />
<glyph d="M-305 1800h110l185 -223h-90z" />
<glyph d="M-295 1577l184 223h111l-205 -223h-90z" />
<glyph d="M-424 1577l145 225h105l-168 -225h-82zM-231 1577l153 225h103l-175 -225h-81z" />
<glyph d="M-440 1577l161 223h99l162 -223h-84l-127 158l-127 -158h-84z" />
<glyph d="M-442 1800h84l127 -158l127 158h84l-162 -223h-99z" />
<glyph d="M-442 1800h80q6 -149 137 -149q133 0 139 149h80q-3 -106 -61 -166.5t-158 -60.5q-98 0 -156 60.5t-61 166.5z" />
<glyph d="M-268 1712q0 58 36.5 93.5t96.5 35.5q61 0 98 -35t37 -94q0 -62 -37 -98.5t-98 -36.5q-60 0 -96.5 37t-36.5 98zM-207 1710q0 -34 20 -54t52 -20t52 20t20 54q0 31 -20 51.5t-52 20.5t-52 -20.5t-20 -51.5z" />
<glyph d="M-424 1638q3 69 37.5 110.5t91.5 41.5q37 0 67 -20.5t54 -41t45 -20.5q51 0 57 76h78q-6 -70 -40 -111t-89 -41q-36 0 -65.5 20.5t-54 41t-46.5 20.5q-47 0 -53 -76h-82z" />
<glyph d="M-350 1642v80h358v-80h-358z" />
<glyph d="M-180 1923h67l76 -346h-108z" />
<glyph d="M-168 -483l35 346h106l-69 -346h-72z" />
<glyph d="M-373 -250h76q6 -35 33 -55.5t67 -20.5q45 0 73 22.5t28 61.5t-23.5 61.5t-62.5 22.5q-48 0 -70 -16l-29 27l48 147h65l-33 -109q25 5 37 5q61 0 102.5 -39.5t41.5 -98.5q0 -71 -49.5 -112t-129.5 -41q-72 0 -120.5 41t-53.5 104z" />
<glyph d="M-236 -238q0 123 138 238h82q-61 -53 -97.5 -113t-36.5 -110q0 -42 27.5 -64t67.5 -22q32 0 59 6v-80q-33 -10 -74 -10q-80 0 -123 45t-43 110z" />
<glyph d="M-416 -88l332 1208h88l-332 -1208h-88z" />
<glyph d="M-723 -74l440 1579h88l-442 -1579h-86z" />
<glyph d="M-442 1466h80q6 -149 137 -149q133 0 139 149h80q-3 -106 -61 -166.5t-158 -60.5q-98 0 -156 60.5t-61 166.5z" />
<glyph d="M-442 1800h80q6 -149 137 -149q133 0 139 149h80q-3 -106 -61 -166.5t-158 -60.5q-98 0 -156 60.5t-61 166.5z" />
</font>
</defs>
</svg>
